<svg width="706" height="1024" viewBox="0 0 706 1024" fill="none" xmlns="http://www.w3.org/2000/svg">
<path d="M215.832 598.971C217.108 598.756 218.388 598.335 219.658 598.364C225.069 598.486 230.49 599.524 235.857 597.499C236.338 597.317 238.906 600.121 238.726 601.254C238.298 603.944 237.089 608.523 235.691 608.719C226.089 610.062 221.08 617.516 215.561 623.659C205.557 634.796 200.888 648.847 197.339 663.156C196.845 665.145 198.212 667.597 199.107 669.847C199.496 669.859 199.496 669.905 199.364 670.258C199.14 672.219 199.048 673.827 198.577 675.477C197.22 683.027 196.519 690.585 195.198 698.032C193.035 710.22 198.739 717.613 209.125 722.5C210.928 723.348 212.7 724.295 214.385 725.357C219.867 728.811 225.308 732.328 230.751 735.844C233.208 737.431 235.631 739.072 237.989 740.636C233.404 741.918 233.962 745.798 234.714 750.084C236.124 758.111 237.184 766.198 238.581 775.536C233.527 767.324 230.483 759.593 230.044 751.218C229.62 743.136 225.707 738.394 218.587 735.339C211.15 732.148 203.902 728.511 196.464 725.018C197.698 733.302 199.394 741.691 203.885 749.183C202.138 747.569 200.888 745.737 199.321 744.237C197.859 742.838 196.061 741.791 194.41 740.589C194.306 742.617 193.928 744.678 194.173 746.662C194.42 748.662 195.285 750.586 195.879 752.543C187.15 740.652 184.899 726.661 183.013 712.563C182.662 709.943 182.568 707.289 182.175 703.858C181.669 701.477 181.343 699.889 181.438 698.173C182.085 693.598 182.122 689.131 182.573 684.707C183.578 674.867 184.791 665.048 186.079 655.205C186.158 655.227 186.077 655.264 185.753 655.263C185.511 655.226 185.048 655.39 184.85 655.177C184.137 656.12 183.623 657.278 183.08 658.388C183.053 658.341 183.155 658.379 182.779 658.398C182.009 659.458 181.615 660.498 181.18 661.454C181.138 661.37 181.274 661.498 180.899 661.472C179.72 663.114 178.915 664.78 178.091 666.406C178.071 666.365 178.162 666.37 177.9 666.49C177.545 666.966 177.453 667.322 177.348 667.604C177.336 667.529 177.458 667.618 177.115 667.659C176.585 668.312 176.397 668.925 176.186 669.481C176.164 669.424 176.285 669.441 175.976 669.546C175.471 670.244 175.275 670.837 175.06 671.392C175.042 671.353 175.126 671.358 174.871 671.487C174.527 671.97 174.438 672.324 174.332 672.598C174.317 672.519 174.458 672.597 174.106 672.656C173.506 673.591 173.258 674.466 173.003 675.332C172.996 675.323 173.018 675.323 172.761 675.499C172.365 676.268 172.227 676.861 172.07 677.412C172.053 677.37 172.142 677.356 171.848 677.54C171.755 678.913 171.955 680.103 172.109 681.286C172.063 681.28 172.099 681.195 172.073 681.563C172.483 682.682 172.92 683.431 173.284 684.195C173.212 684.209 173.261 684.07 173.205 684.414C173.547 685.229 173.946 685.7 174.279 686.188C174.214 686.204 174.259 686.076 174.204 686.421C174.562 687.222 174.974 687.676 175.326 688.157C175.265 688.183 175.306 688.057 175.237 688.403C175.582 689.202 175.996 689.655 176.43 690.116C176.449 690.124 176.486 690.104 176.332 690.427C174.954 691.094 173.729 691.439 172.504 691.784C172.504 691.784 172.863 691.534 172.812 691.283C172.035 690.233 171.308 689.433 170.582 688.634C170.582 688.634 170.703 688.55 170.742 688.242C168.535 684.957 166.746 686.481 165.886 688.861C164.9 691.593 164.649 694.591 164.079 697.474C164.079 697.474 164.057 697.395 163.785 697.603C162.466 701.547 161.418 705.283 160.087 710.028C159.183 708.371 158.404 707.618 158.433 706.898C159.242 687.248 164.58 669.001 175.218 652.357C176.166 650.874 176.056 648.713 176.437 646.867C176.437 646.867 176.534 646.863 176.866 646.882C178.209 645.044 179.221 643.188 180.233 641.331C180.209 641.114 180.185 640.897 180.099 640.358C177.223 639.535 174.423 638.904 171.589 638.591C170.304 638.45 168.951 638.943 167.628 639.148C167.446 638.597 167.264 638.045 167.081 637.494C168.846 636.746 170.55 635.757 172.387 635.298C177.478 634.024 182.624 632.971 187.737 631.434C187.725 631.039 187.722 631.062 188.004 631.002C188.483 630.627 188.681 630.313 188.889 630.065C188.901 630.131 188.768 630.11 189.044 630.023C189.478 629.601 189.638 629.266 189.803 628.992C189.809 629.053 189.705 628.989 190.091 629.036C191.251 627.719 192.024 626.355 192.843 625.068C192.889 625.146 192.749 625.033 193.121 625.051C193.975 624.087 194.456 623.103 194.959 622.155C194.98 622.191 194.899 622.177 195.148 622.061C195.554 621.624 195.711 621.302 195.874 621.035C195.88 621.09 195.778 621.049 196.155 621.071C197.335 619.769 198.138 618.445 198.964 617.154C198.988 617.187 198.907 617.168 199.154 617.053C199.56 616.622 199.719 616.305 199.882 616.039C199.886 616.089 199.793 616.047 200.168 616.068C201.346 614.768 202.149 613.448 202.974 612.158C202.997 612.187 202.927 612.164 203.168 612.052C203.58 611.638 203.75 611.335 203.929 611.081C203.937 611.13 203.852 611.08 204.223 611.115C206.99 608.407 209.386 605.664 211.809 602.97C211.838 603.019 211.726 603.007 212.009 602.943C212.473 602.556 212.655 602.232 212.848 601.965C212.859 602.022 212.759 601.962 213.158 602.025C214.318 601.049 215.079 600.009 215.859 598.977C215.877 598.985 215.832 598.971 215.832 598.971Z" fill="#2A4A6B"/>
<path d="M339.908 825.587C339.622 826.531 339.161 827.459 339.076 828.421C337.191 849.777 315.808 862.506 296.229 853.273C288.926 849.83 282.408 845.614 273.981 844.098C264.793 842.445 260.088 833.921 256.04 825.038C250.886 822.194 244.907 821.37 242.311 816.062C241.231 813.854 241.171 809.855 242.504 808.035C244.832 804.857 245.972 808.828 247.508 810.093C247.861 810.385 248.412 810.435 249.004 810.834C249.441 811.511 249.746 811.949 250.14 812.635C250.801 812.865 251.371 812.848 252.293 812.777C253.114 812.76 253.584 812.798 254.289 813.05C255.332 812.672 256.141 812.081 256.971 811.527C256.991 811.565 256.913 811.531 257.342 811.552C260.552 811.25 263.326 810.786 266.117 810.641C269.692 810.456 271.392 811.995 270.063 815.709C270.029 815.67 270.131 815.685 269.797 815.679C269.038 816.097 268.613 816.52 268.161 816.863C268.134 816.781 268.304 816.796 268.009 816.845C267.54 817.233 267.366 817.572 267.174 817.825C267.156 817.739 267.329 817.768 266.947 817.848C264.141 820.677 263.87 823.26 267.104 825.572C267.06 825.573 267.081 825.487 267.08 825.81C267.435 826.616 267.79 827.099 268.101 827.578C268.057 827.575 268.085 827.491 268.084 827.823C268.495 828.594 268.908 829.032 269.237 829.491C269.153 829.512 269.169 829.34 269.225 829.627C269.599 830.114 269.917 830.314 270.164 830.526C270.093 830.538 270.107 830.393 270.188 830.67C270.588 831.138 270.908 831.328 271.156 831.527C271.084 831.536 271.104 831.393 271.191 831.672C271.611 832.121 271.944 832.291 272.192 832.472C272.107 832.483 272.139 832.314 272.24 832.631C272.945 833.14 273.548 833.332 274.1 833.54C274.047 833.557 274.04 833.446 274.203 833.748C275.009 834.215 275.652 834.381 276.477 834.502C276.661 834.457 276.993 834.636 277.229 834.908C278.963 834.928 280.461 834.676 281.955 834.483C281.95 834.544 281.835 834.504 282.199 834.544C283.359 834.199 284.156 833.813 284.945 833.489C284.937 833.551 284.822 833.505 285.16 833.509C286 832.884 286.501 832.256 287.064 831.389C287.295 830.839 287.555 830.654 288.284 830.549C289.793 828.106 290.924 825.712 292.246 822.913C294.228 822.601 296.754 822.203 299.598 821.756C298.692 825.102 297.899 828.027 297.142 831.126C297.177 831.3 297.013 831.617 296.748 831.798C296.378 832.593 296.274 833.208 296.151 833.759C296.132 833.696 296.263 833.705 295.953 833.838C295.688 835.172 295.734 836.373 295.857 837.915C295.951 838.718 295.97 839.181 295.824 839.762C295.902 840.028 296.146 840.176 296.323 840.388C296.257 840.451 296.195 840.277 296.268 840.6C296.929 841.142 297.516 841.36 298.066 841.597C298.029 841.615 298.038 841.533 298.159 841.787C298.62 842.163 298.96 842.286 299.217 842.434C299.133 842.461 299.151 842.286 299.3 842.655C305.364 845.263 311.228 846.147 316.911 842.426C316.909 842.496 316.782 842.438 317.12 842.479C317.938 842.134 318.418 841.746 318.915 841.44C318.93 841.522 318.765 841.512 319.027 841.459C319.524 841.15 319.758 840.894 319.997 840.64C320 840.642 319.999 840.635 320.321 840.594C321.067 840.126 321.491 839.699 322.041 839.017C323.022 838.027 323.877 837.293 325.011 836.462C325.482 836.033 325.673 835.701 325.874 835.457C325.884 835.545 325.708 835.52 326.045 835.39C327.275 832.802 331.187 830.768 327.248 827.507C327.051 827.356 326.904 826.882 326.941 826.485C327.63 824.219 328.281 822.349 328.948 820.516C328.963 820.553 328.883 820.564 329.126 820.471C329.575 820.109 329.781 819.838 329.993 819.584C330 819.602 329.968 819.581 330.293 819.556C330.985 819.087 331.354 818.643 331.751 818.283C331.78 818.369 331.605 818.326 331.928 818.294C332.496 817.7 332.742 817.138 332.994 816.585C333 816.595 332.979 816.587 333.207 816.469C333.613 816.065 333.79 815.778 333.966 815.53C333.964 815.569 333.893 815.536 334.256 815.508C335.057 814.482 335.496 813.484 335.951 812.523C335.967 812.558 335.889 812.564 336.166 812.408C336.601 811.654 336.76 811.056 336.901 810.482C336.882 810.505 336.85 810.455 337.21 810.336C341.6 803.856 339.472 797.495 336.99 791.182C342.601 790.713 345.156 793.354 346.04 798.929C347.433 807.716 345.593 815.566 340.375 822.726C339.867 823.422 340.047 824.621 339.908 825.587Z" fill="#2A4A6B"/>
<path d="M365.969 821.649C356.611 812.225 355.466 795.756 363.727 783.374C365.865 780.169 365.981 777.902 364.329 774.441C360 765.369 361.3 756.273 365.62 747.472C366.497 745.685 367.489 743.954 368.45 742.155C361.051 731.787 358.163 720.618 362.646 707.778C364.524 705.056 365.542 702.538 367.172 700.516C368.238 699.192 370.19 698.586 371.745 697.658C372.063 699.303 372.647 700.95 372.638 702.594C372.625 705.205 372.217 707.814 372.014 710.887C370.664 720.825 372.961 729.284 378.42 737.164C380.975 740.851 382.583 745.197 385.172 750.34C381.506 748.85 379.452 748.016 376.647 746.876C375.679 751.874 374.755 756.227 374.005 760.61C372.832 767.46 376.226 773.53 377.246 779.927C378.555 788.144 383.515 791.724 389.742 794.566C397.64 798.17 404.827 793.522 405.975 784.92C406.451 781.357 407.776 777.907 408.993 774.297C409.468 773.239 409.665 772.289 409.877 771.39C409.893 771.441 409.786 771.431 410.121 771.328C413.125 767.893 415.794 764.56 418.464 761.227C418.953 761.489 419.442 761.752 419.932 762.015C419.57 763.415 419.239 764.824 418.838 766.213C418.302 768.073 417.711 769.918 417.164 772.128C415.781 775.197 414.377 777.907 412.704 780.84C412.309 781.749 412.184 782.436 412.142 783.504C411.454 788.438 411.398 793.224 406.854 796.22C400.566 800.366 394.404 804.705 388.131 809.001C389.083 806.846 390.129 804.48 390.728 803.125C384.032 799.252 377.446 795.442 370.831 791.616C368.381 797.053 368.622 803.614 370.932 810.175C368.946 804.819 367.325 799.488 365.65 793.974C365.131 794.377 364.245 794.835 363.67 795.546C359.291 800.962 359.447 810.617 363.799 816.896C364.775 818.304 365.258 820.055 365.969 821.649Z" fill="#2A4A6B"/>
<path d="M365.979 824.633C365.258 823.055 364.775 821.304 363.799 819.896C359.447 813.617 359.291 803.962 363.67 798.546C364.245 797.835 365.131 797.377 365.65 796.974C367.325 802.488 368.946 807.819 370.912 813.23C371.258 813.308 371.148 813.338 371.202 813.611C371.536 814.109 371.815 814.335 372.056 814.566C372.017 814.571 372.053 814.502 372.068 814.832C372.513 815.567 372.945 815.973 373.292 816.409C373.209 816.439 373.227 816.262 373.268 816.562C373.651 817.029 373.994 817.195 374.264 817.383C374.19 817.405 374.231 817.257 374.271 817.558C374.659 818.006 375.007 818.153 375.275 818.306C375.196 818.311 375.281 818.175 375.323 818.515C375.971 819.057 376.577 819.26 377.13 819.472C377.078 819.48 377.134 819.389 377.133 819.767C378.145 822.71 379.159 825.275 380.145 827.783C380.118 827.726 380.244 827.72 379.891 827.819C376.583 831.53 379.033 833.977 381.28 836.47C381.193 836.49 381.229 836.315 381.263 836.607C381.61 837.109 381.924 837.318 382.165 837.536C382.093 837.545 382.116 837.402 382.185 837.72C382.915 838.531 383.577 839.025 384.16 839.529C384.083 839.541 384.1 839.385 384.208 839.684C384.885 840.195 385.455 840.408 386.012 840.631C386 840.642 386.016 840.615 386.145 840.851C386.596 841.227 386.917 841.367 387.157 841.514C387.075 841.521 387.104 841.359 387.227 841.674C387.972 842.139 388.593 842.289 389.156 842.471C389.098 842.503 389.086 842.371 389.257 842.71C395.354 845.577 401.253 847.188 406.961 842.556C406.963 842.598 406.886 842.561 407.202 842.559C407.995 842.219 408.474 841.879 408.969 841.583C408.988 841.625 408.911 841.573 409.289 841.547C410.363 840.102 411.974 838.34 411.595 837.322C409.93 832.85 410.791 826.878 404.885 824.681C404.931 824.653 404.899 824.755 404.938 824.325C406.073 817.719 410.426 821.671 412.167 821.133C414.411 824.354 416.235 826.972 418.029 829.602C417.999 829.615 418.035 829.56 418.054 829.884C418.489 830.63 418.905 831.051 419.234 831.491C419.148 831.51 419.168 831.334 419.228 831.624C419.618 832.102 419.947 832.29 420.198 832.493C420.12 832.507 420.145 832.351 420.218 832.639C420.632 833.095 420.972 833.263 421.228 833.445C421.144 833.459 421.185 833.293 421.252 833.666C426.531 837.685 430.028 837.228 434.827 832.364C434.835 832.455 434.662 832.398 434.961 832.355C435.435 831.971 435.61 831.629 435.801 831.379C435.818 831.47 435.638 831.429 435.955 831.358C436.503 830.714 436.734 830.14 436.982 829.593C437 829.619 436.946 829.588 437.306 829.542C438.061 828.473 438.456 827.449 438.874 826.485C438.899 826.546 438.769 826.556 439.107 826.385C439.519 823.714 439.594 821.213 439.769 818.722C439.87 818.732 439.795 818.922 439.748 818.625C439.367 818.14 439.034 817.951 438.782 817.747C438.864 817.731 438.836 817.896 438.77 817.603C438.362 817.144 438.019 816.978 437.762 816.806C437.847 816.799 437.785 816.959 437.734 816.575C437.086 814.976 436.489 813.76 435.893 812.544C436.171 812.056 436.448 811.568 436.726 811.08C440.862 811.904 444.997 812.727 449.36 813.56C449.588 813.569 450.03 813.681 450.264 813.937C452.284 813.546 454.069 812.899 455.807 812.214C455.758 812.176 455.741 812.053 456.088 812.092C457.687 811.145 459.379 810.408 460.106 809.123C462.188 805.445 464.263 806.336 466.733 808.363C465.033 816.315 460.941 821.541 452.935 823.167C448.371 824.094 446.827 827.311 447.016 831.656C447.016 831.656 446.995 831.628 446.776 831.762C446.419 832.221 446.28 832.546 446.141 832.872C446.141 832.872 446.137 832.713 445.863 832.813C445.124 833.903 444.658 834.892 444.192 835.881C444.192 835.881 444.125 835.751 443.906 835.839C443.449 836.465 443.21 837.003 442.972 837.541C442.492 838.174 442.012 838.806 440.931 839.572C439.931 840.118 439.531 840.531 439.13 840.943C439.13 840.943 439.133 840.795 438.804 840.786C433.668 841.733 428.813 842.508 424.082 843.753C422.609 844.141 421.47 845.805 420.178 846.885C420.178 846.885 420.125 846.768 419.905 846.858C419.541 847.297 419.398 847.648 419.255 847.998C419.255 847.998 419.246 847.819 419.002 847.9C418.508 848.542 418.258 849.103 418.008 849.663C418.008 849.663 418 849.659 417.627 849.666C414.113 851.014 411.047 853.241 407.816 853.517C400.52 854.14 393.142 853.8 385.797 853.852C385.797 853.852 385.93 853.824 385.782 853.555C384.088 852.748 382.541 852.212 380.995 851.675C380.995 851.675 381 851.663 380.864 851.437C380.415 851.065 380.101 850.919 379.787 850.773C379.787 850.773 379.934 850.755 379.811 850.536C379.123 850.103 378.559 849.89 377.996 849.677C377.996 849.677 377.999 849.659 377.96 849.318C375.941 847.205 373.96 845.433 371.979 843.661C371.979 843.661 372 843.648 371.988 843.255C371.313 838.367 370.746 833.853 369.913 829.389C369.726 828.389 368.611 827.563 367.923 826.658C367.923 826.658 367.992 826.619 367.948 826.322C367.256 825.562 366.609 825.1 365.962 824.637C365.962 824.637 365.988 824.618 365.979 824.633Z" fill="#2A4A6B"/>
<path d="M340.204 825.424C340.047 824.621 339.867 823.422 340.375 822.726C345.593 815.566 347.433 807.716 346.04 798.929C345.156 793.354 342.601 790.713 336.99 791.182C339.472 797.495 341.6 803.856 337.233 809.925C338.409 804.062 338.494 798.662 335.004 792.94C329.747 800.512 322.548 803.742 313.813 804.592C315.323 807.159 316.488 809.141 317.427 811.263C317.067 811.523 316.935 811.642 316.497 811.623C313.047 808.839 310.214 805.631 306.691 803.665C299.376 799.583 295.55 793.456 294.272 785.364C294.225 785.029 294.036 784.807 293.643 784.481C293.214 784.125 293.157 783.838 293.476 783.263C294.252 779.091 296.217 779.66 298.77 781.767C299.57 784.475 300.226 786.882 300.763 789.315C302.093 795.342 307.818 799.379 313.854 798.49C322.668 797.192 328.256 791.632 329.614 782.86C329.74 782.051 329.919 781.169 330.349 780.499C335.375 772.665 334.721 764.41 332.315 755.979C330.205 748.587 330.24 748.584 323.047 750.007C322.816 750.053 322.503 749.686 321.782 749.23C322.21 748.34 322.576 747.352 323.124 746.477C326.902 740.438 330.718 734.423 334.841 728.265C335.794 724.963 336.123 721.693 337.168 718.67C337.831 716.752 339.558 715.204 340.808 713.49C341.943 714.905 343.702 716.169 344.088 717.765C345.003 721.551 345.267 725.495 345.794 729.376C343.775 734.575 341.755 739.775 339.319 746.047C339.879 747.067 341.209 749.327 342.388 751.664C346.61 760.036 347.202 768.658 343.265 777.217C341.771 780.466 341.958 782.789 343.818 785.853C351.763 798.946 350.384 813.614 340.204 825.424Z" fill="#2A4A6B"/>
<path d="M511.459 709.396C511.975 708.948 512.795 708.589 512.956 708.036C514.094 704.135 514.944 700.143 516.236 696.298C516.623 695.146 518.266 693.487 519.081 693.62C520.441 693.84 522.384 695.121 522.68 696.306C523.362 699.044 523.204 701.992 523.641 705.102C523.835 706.842 523.776 708.335 523.18 710.33C522.44 712.387 522.238 713.942 522.036 715.498C522.036 715.498 522.027 715.965 521.745 716.374C521.6 717.649 521.739 718.515 521.877 719.382C521.618 719.875 521.359 720.368 520.804 721.293C520.667 722.283 520.825 722.841 520.984 723.399C519.177 733.519 515.8 743.006 509.376 751.142C508.636 749.449 508.246 748.019 507.821 746.461C505.358 747.591 503.591 748.402 501.881 748.867C507.41 741.588 508.587 733.223 510.209 724.756C501.855 728.958 493.978 733.189 485.869 736.913C479.48 739.847 477.048 744.439 476.755 751.399C476.406 759.686 474.41 767.777 468.956 774.462C468.869 774.365 468.701 774.167 468.685 773.769C469.826 764.312 470.906 755.242 472.181 746.199C472.581 743.359 471.449 742.227 469.015 740.936C465.981 739.326 463.461 736.745 460.719 734.582C461.022 734.258 461.325 733.933 461.629 733.608C464.054 735.044 466.333 736.981 468.954 737.747C470.825 738.294 473.514 737.865 475.209 736.833C479.873 733.993 484.108 730.455 488.693 727.472C494.825 723.483 501.281 719.977 507.264 715.787C509.202 714.429 510.091 711.569 511.459 709.396Z" fill="#2A4A6B"/>
<path d="M345.91 728.978C345.267 725.495 345.003 721.551 344.088 717.765C343.702 716.169 341.943 714.905 340.808 713.49C339.558 715.204 337.831 716.752 337.168 718.67C336.123 721.693 335.794 724.963 334.939 727.899C336.481 720.977 335.82 714.564 333.197 708.126C331.156 703.12 329.998 697.809 331.669 691.764C333.337 693.012 334.559 693.927 335.769 694.832C341.739 687.582 342.006 677.985 336.564 668.728C331.589 660.264 324.501 659.929 319.117 668.366C317.052 671.604 316.427 675.767 315.168 679.516C314.861 680.431 314.643 681.376 314.383 682.307C313.903 682.279 313.423 682.251 312.943 682.223C312.749 678.676 312.086 675.081 312.449 671.593C313.539 661.113 320.82 655.871 330.034 652.009C330.181 649.82 329.736 647.789 329.889 645.804C329.997 644.399 330.914 643.057 331.465 641.734C331.46 641.781 331.489 641.872 331.423 642.153C331.619 642.69 331.881 642.945 332.099 643.202C332.055 643.204 332.093 643.125 332.089 643.449C332.448 644.251 332.812 644.728 333.418 645.346C334.109 645.76 334.556 646.033 335.134 646.455C335.393 646.588 335.522 646.574 335.651 646.559C335.549 646.326 335.447 646.094 335.351 645.838C335.358 645.815 335.36 645.768 335.36 645.768C336.93 644.336 338.715 643.074 340.006 641.423C341.147 639.962 341.738 638.069 342.571 636.367C343.221 636.453 343.87 636.54 344.52 636.626C344.52 639.458 344.586 642.292 344.491 645.121C344.445 646.475 344.093 647.818 344.206 649.353C343.283 651.379 342.033 653.219 340.12 655.227C339.372 657.099 338.587 659.244 339.329 660.426C341.931 664.569 345.06 668.379 347.988 672.316C348.29 673.107 348.592 673.899 348.711 675.119C348.665 675.811 348.802 676.073 348.939 676.336C350.824 686.073 347.609 694.21 340.914 701.332C345.664 709.888 348.022 718.842 345.91 728.978Z" fill="#2A4A6B"/>
<path d="M248.873 810.596C248.413 810.435 247.861 810.385 247.508 810.093C245.972 808.828 244.832 804.857 242.504 808.035C241.171 809.855 241.231 813.854 242.311 816.062C244.907 821.37 250.886 822.194 255.92 824.676C247.058 824.501 240.851 820.594 237.961 811.491C237.167 808.989 234.29 806.904 231.958 805.189C226.828 801.417 223.234 796.658 220.633 790.866C219.823 789.061 217.732 787.31 215.832 786.605C204.35 782.343 198.582 773.239 200.804 761.246C201.646 756.701 197.667 755.854 196.02 752.855C195.285 750.586 194.42 748.662 194.173 746.662C193.928 744.678 194.306 742.617 194.41 740.589C196.061 741.791 197.859 742.838 199.321 744.237C200.888 745.737 202.138 747.569 203.87 749.23C204.214 749.204 204.117 749.196 204.2 749.479C204.613 749.958 204.942 750.152 205.175 750.359C205.08 750.372 205.093 750.18 205.217 750.489C205.951 750.984 206.561 751.172 207.11 751.362C207.049 751.365 207.076 751.245 207.179 751.59C209.885 753.098 212.489 754.262 215.055 755.443C215.017 755.461 215.051 755.384 215.027 755.744C214.042 757.216 213.08 758.329 211.794 759.654C207.572 767.664 211.924 776.117 220.262 777.544C222.884 777.993 227.003 779.103 227.531 780.812C230.265 789.66 236.534 791.17 244.51 791.195C247.626 791.204 251.425 792.414 251.402 797.335C246.639 797.335 242.176 797.335 237.713 797.335C237.593 797.772 237.474 798.209 237.355 798.646C241.155 800.786 244.955 802.927 248.873 805.133C248.873 806.967 248.873 808.781 248.873 810.596Z" fill="#2A4A6B"/>
<path d="M501.824 749.213C503.591 748.402 505.358 747.591 507.821 746.461C508.246 748.019 508.636 749.449 509.051 751.272C508.783 752.121 508.49 752.576 507.703 753.301C506.527 754.62 505.846 755.671 505.165 756.721C505.165 756.721 505.138 756.589 505.018 756.623C504.788 756.706 504.679 756.756 504.571 756.805C504.666 757.005 504.762 757.205 504.858 757.404C506.846 764.086 506.315 770.552 503.194 776.792C500.734 781.71 496.771 785.155 491.483 786.017C487.564 786.656 485.853 788.705 484.408 791.887C483.455 793.985 482.296 796.137 480.724 797.778C474.934 803.823 468.663 809.261 465.175 817.378C463.917 820.304 459.532 822.824 456.121 823.647C451.5 824.762 448.805 826.854 447.295 831.442C446.827 827.311 448.371 824.094 452.935 823.167C460.941 821.541 465.033 816.315 466.733 808.363C464.263 806.336 462.188 805.445 460.106 809.123C459.379 810.408 457.687 811.145 456.304 811.828C458.292 805.086 462.669 800.711 468.64 797.769C468.762 797.709 468.655 797.182 468.655 796.035C464.266 796.462 459.965 796.88 455.66 797.299C456.988 792.287 459.921 789.634 466.099 790.801C472.65 792.037 475.101 788.555 477.678 784.098C479.658 780.674 482.067 778.036 486.461 777.577C495.045 776.68 499.391 767.431 494.687 759.29C491.198 761.211 487.694 763.139 484.214 765.055C485.771 759.403 488.942 756.467 500.285 750.445C501.046 750.022 501.49 749.624 501.902 749.26C501.87 749.294 501.824 749.213 501.824 749.213Z" fill="#2A4A6B"/>
<path d="M371.976 713.425C372.217 710.814 372.625 708.205 372.638 705.594C372.646 703.95 372.063 702.303 371.745 700.658C370.19 701.586 368.238 702.192 367.172 703.516C365.542 705.538 364.524 708.056 362.932 710.599C362.553 710.632 362.489 710.43 362.711 709.723C363.018 709.047 363.038 708.874 363.059 708.701C364.14 706.106 365.222 703.511 366.385 700.719C357.107 691.186 355.03 680.145 360.946 667.496C363.362 664.219 365.153 661.209 366.944 658.198C366.944 658.198 366.984 658.266 367.196 658.13C367.572 657.663 367.736 657.332 367.9 657.001C367.9 657.001 367.8 656.66 368.111 656.307C367.227 654.764 366.031 653.573 364.836 652.382C364.836 652.382 364.886 652.367 364.869 652.389C364.099 650.108 363.765 647.54 362.515 645.551C358.226 638.724 358.759 631.2 359.17 623.773C359.273 621.906 361.31 620.146 362.458 618.336C363.633 620.116 365.456 621.768 365.839 623.705C366.483 626.961 366.211 630.398 366.655 634.227C366.984 634.694 367.022 635.158 367.015 635.565C367.781 637.768 368.553 639.565 369.568 641.57C371.248 643.288 372.685 644.798 374.412 646.441C375.28 647.516 375.849 648.464 376.439 649.397C377.027 650.327 377.637 651.242 378.177 652.172C378.115 652.181 378.144 652.061 378.145 652.438C379.159 653.251 380.172 653.688 381.124 654.164C381.061 654.202 381.14 654.079 381.122 654.446C382.401 656.634 383.699 658.454 385.652 661.193C383.504 660.745 382.597 660.565 381.694 660.366C380.734 660.154 379.731 659.632 378.834 659.78C377.835 659.943 376.935 660.708 375.917 661.332C375.842 661.453 375.559 661.417 375.23 661.494C374.686 661.941 374.47 662.311 374.255 662.596C374.255 662.511 374.397 662.605 374.092 662.633C373.675 663.02 373.563 663.379 373.41 663.585C373.37 663.434 373.511 663.715 373.169 663.709C372.593 664.293 372.359 664.881 372.108 665.423C372.091 665.377 372.189 665.381 371.921 665.495C371.539 665.964 371.427 666.319 371.297 666.589C371.28 666.504 371.439 666.573 371.1 666.629C370.568 667.3 370.376 667.915 370.16 668.468C370.136 668.406 370.268 668.41 369.931 668.549C364.965 675.13 364.421 686.149 368.421 691.115C368.354 691.153 368.417 691.012 368.315 691.361C368.648 692.132 369.084 692.554 369.471 693.036C369.423 693.096 369.4 692.944 369.378 693.24C369.645 693.777 369.933 694.019 370.5 694.379C371.788 693.627 372.797 692.755 373.934 691.773C377.327 699.303 374.065 706.318 371.976 713.425Z" fill="#2A4A6B"/>
<path d="M176.199 647.082C176.056 648.713 176.166 650.874 175.218 652.357C164.58 669.001 159.242 687.248 158.433 706.898C158.404 707.618 159.183 708.371 160.087 710.028C161.418 705.283 162.466 701.547 163.826 697.604C163.8 700.344 163.476 703.293 163.119 706.239C160.685 726.328 164.913 744.462 178.705 759.82C179.332 760.518 179.655 761.49 179.902 762.631C179.683 762.927 179.704 762.942 179.704 762.942C159.949 744.447 153.829 721.48 157.72 695.292C160.294 677.972 166.891 662.155 176.199 647.082Z" fill="#2A4A6B"/>
<path d="M386.021 854.144C393.142 853.8 400.52 854.14 407.816 853.517C411.047 853.241 414.113 851.014 417.629 849.67C408.383 857.716 397.598 857.977 386.021 854.144Z" fill="#2A4A6B"/>
<path d="M172.629 692.099C173.729 691.439 174.954 691.094 176.549 690.673C178.286 693.164 179.651 695.732 181.017 698.3C181.343 699.889 181.669 701.477 182.046 703.407C178.983 699.97 175.869 696.192 172.629 692.099Z" fill="#2A4A6B"/>
<path d="M347.995 671.942C345.06 668.379 341.931 664.569 339.329 660.426C338.587 659.244 339.372 657.099 339.819 655.367C340.577 656.734 340.757 658.242 341.41 659.505C343.513 663.575 345.791 667.553 347.995 671.942Z" fill="#2A4A6B"/>
<path d="M420.544 846.671C421.47 845.805 422.609 844.141 424.082 843.753C428.813 842.508 433.668 841.733 438.871 840.818C434.803 842.394 430.358 843.983 425.867 845.434C424.271 845.949 422.566 846.126 420.544 846.671Z" fill="#2A4A6B"/>
<path d="M368.016 827.105C368.611 827.563 369.726 828.389 369.913 829.389C370.746 833.853 371.313 838.367 371.981 843.266C367.428 839.085 368.16 833.224 368.016 827.105Z" fill="#2A4A6B"/>
<path d="M164.401 697.31C164.649 694.591 164.9 691.593 165.886 688.861C166.746 686.481 168.535 684.957 170.721 688.313C170.167 688.056 169.673 687.422 168.549 685.977C167.082 690.259 165.902 693.702 164.401 697.31Z" fill="#2A4A6B"/>
<path d="M366.644 658.361C365.153 661.209 363.362 664.219 361.22 667.272C362.694 664.384 364.519 661.454 366.644 658.361Z" fill="#2A4A6B"/>
<path d="M372.056 843.987C373.96 845.433 375.941 847.205 377.952 849.322C376.032 847.882 374.082 846.097 372.056 843.987Z" fill="#2A4A6B"/>
<path d="M180.021 641.589C179.221 643.188 178.209 645.044 176.842 646.84C177.594 645.134 178.702 643.49 180.021 641.589Z" fill="#2A4A6B"/>
<path d="M364.923 652.693C366.031 653.573 367.227 654.764 368.16 656.137C366.936 655.214 365.973 654.109 364.923 652.693Z" fill="#2A4A6B"/>
<path d="M381.195 851.955C382.541 852.212 384.088 852.748 385.771 853.621C384.404 853.383 382.9 852.809 381.195 851.955Z" fill="#2A4A6B"/>
<path d="M505.451 756.591C505.846 755.67 506.527 754.62 507.552 753.534C507.176 754.485 506.457 755.473 505.451 756.591Z" fill="#2A4A6B"/>
<path d="M522.338 715.334C522.238 713.942 522.44 712.387 522.989 710.65C523.328 710.898 523.32 711.327 523.14 712.262C522.969 712.769 522.938 713.2 522.938 713.2C522.839 713.857 522.739 714.514 522.338 715.334Z" fill="#2A4A6B"/>
<path d="M521.999 719.147C521.739 718.515 521.601 717.649 521.7 716.603C522 717.253 522.061 718.082 521.999 719.147Z" fill="#2A4A6B"/>
<path d="M444.491 835.746C444.658 834.892 445.124 833.903 445.94 832.835C445.79 833.707 445.29 834.659 444.491 835.746Z" fill="#2A4A6B"/>
<path d="M170.662 688.934C171.308 689.433 172.035 690.233 172.62 691.388C171.9 690.908 171.321 690.071 170.662 688.934Z" fill="#2A4A6B"/>
<path d="M521.116 723.226C520.825 722.841 520.667 722.283 520.727 721.58C521.047 721.975 521.148 722.514 521.116 723.226Z" fill="#2A4A6B"/>
<path d="M526.907 762.308C526.844 762.282 526.738 762.423 526.738 762.423C526.738 762.423 526.97 762.335 526.907 762.308Z" fill="#2A4A6B"/>
<path d="M366.059 824.918C366.609 825.1 367.256 825.562 367.929 826.357C367.355 826.192 366.756 825.696 366.059 824.918Z" fill="#2A4A6B"/>
<path d="M439.43 840.906C439.531 840.531 439.931 840.118 440.64 839.664C440.543 840.038 440.137 840.453 439.43 840.906Z" fill="#2A4A6B"/>
<path d="M378.141 849.942C378.559 849.89 379.123 850.103 379.802 850.609C379.373 850.671 378.829 850.439 378.141 849.942Z" fill="#2A4A6B"/>
<path d="M179.673 762.954C179.921 762.81 180.169 762.617 180.446 762.484C180.503 762.456 180.668 762.654 180.784 762.747C180.558 762.75 180.332 762.752 179.905 762.848C179.704 762.941 179.683 762.926 179.673 762.954Z" fill="#2A4A6B"/>
<path d="M443.243 837.421C443.21 837.003 443.449 836.465 443.979 835.831C444.018 836.256 443.767 836.779 443.243 837.421Z" fill="#2A4A6B"/>
<path d="M418.288 849.549C418.258 849.103 418.508 848.542 419.083 847.938C419.128 848.408 418.849 848.922 418.288 849.549Z" fill="#2A4A6B"/>
<path d="M530.857 758.17C530.539 758.695 530.23 759.246 529.914 760.134C529.907 760.471 529.857 760.492 529.857 760.492C530.231 759.974 530.606 759.455 530.901 758.583C530.821 758.228 530.867 758.198 530.857 758.17Z" fill="#2A4A6B"/>
<path d="M379.883 851.033C380.101 850.919 380.415 851.065 380.858 851.44C380.651 851.545 380.314 851.419 379.883 851.033Z" fill="#2A4A6B"/>
<path d="M419.534 847.911C419.398 847.648 419.541 847.297 419.968 846.857C420.106 847.119 419.96 847.472 419.534 847.911Z" fill="#2A4A6B"/>
<path d="M446.41 832.779C446.28 832.546 446.419 832.221 446.794 831.764C446.913 831.983 446.796 832.334 446.41 832.779Z" fill="#2A4A6B"/>
<path d="M529.925 760.45C529.943 760.43 529.806 760.586 529.806 760.586C529.806 760.586 530.038 760.521 529.947 760.506C529.857 760.492 529.907 760.471 529.925 760.45Z" fill="#2A4A6B"/>
<path d="M505.012 757.235C504.762 757.205 504.666 757.005 504.571 756.805C504.679 756.756 504.788 756.706 505.083 756.637C505.269 756.617 505.167 757.065 505.012 757.235Z" fill="#2A4A6B"/>
<path d="M523.049 713.126C522.938 713.2 522.969 712.769 522.994 712.554C523.244 712.53 523.29 712.767 523.049 713.126Z" fill="#2A4A6B"/>
<path d="M362.929 708.774C363.038 708.874 363.018 709.047 362.888 709.458C362.611 709.421 362.619 709.138 362.929 708.774Z" fill="#2A4A6B"/>
<path d="M348.978 676.076C348.802 676.073 348.665 675.811 348.672 675.439C348.883 675.493 348.95 675.654 348.978 676.076Z" fill="#2A4A6B"/>
<path d="M367.647 657.129C367.736 657.332 367.572 657.663 367.157 658.125C367.069 657.922 367.232 657.59 367.647 657.129Z" fill="#2A4A6B"/>
<path d="M248.058 652.457C248.558 662.237 248.776 672.042 249.66 681.787C250.209 687.833 253.514 692.92 258.373 696.457C263.857 700.45 269.714 703.956 275.557 707.423C282.399 711.482 289.506 715.096 296.302 719.226C302.567 723.035 315.71 721.794 320.639 716.545C322.778 714.267 323.83 711.907 320.946 709.314C324.473 710.065 325.717 713.794 323.447 717.561C320.35 722.699 315.634 725.664 309.708 726.545C306.932 726.958 304.118 727.119 300.856 727.44C309.05 745.362 312.555 763.728 309.514 783.074C310.886 764.28 303.289 748.084 295.065 732.023C291.602 725.26 286.397 720.843 279.276 718.358C272.581 716.021 265.995 713.37 259.037 710.734C259.669 712.077 260.214 713.542 261.001 714.862C269.86 729.717 278.907 744.461 287.575 759.426C291.556 766.3 294.811 773.595 298.483 781.089C296.217 779.66 294.251 779.091 293.292 782.95C286.707 769.802 277.54 758.791 268.326 746.403C264.769 753.482 261.423 759.423 258.762 765.658C256.559 770.823 258.096 775.172 262.839 778.192C265.302 779.76 268.223 780.734 271.058 781.556C275.222 782.763 279.495 783.593 283.721 784.584C273.857 786.112 264.719 784.513 255.889 779.444C257.689 784.044 259.489 788.644 261.192 793.348C261.094 793.452 260.897 793.659 260.563 793.594C251.337 783.534 248.046 772.184 252.89 759.381C254.813 754.298 257.687 749.511 260.601 744.89C263.05 741.008 262.981 737.903 260.387 734.04C246.728 713.703 233.24 693.239 229.815 668.101C229.768 667.757 228.148 667.628 226.883 667.364C221.969 666.783 226.269 663.572 224.984 661.852C225.223 661.375 225.471 661.235 226.14 661.214C226.957 660.766 227.425 660.326 227.993 659.655C228.416 659.044 228.738 658.664 229.453 658.19C230.082 651.413 230.336 644.73 230.482 638.045C230.486 637.827 229.4 637.585 228.87 637.337C228.917 637.32 228.884 637.416 228.927 636.999C229.273 634.672 229.575 632.761 229.856 630.677C229.835 630.503 230.065 630.239 230.065 630.239C230.713 628.775 231.19 627.2 232.046 625.871C233.647 623.387 235.271 620.851 237.319 618.764C237.917 618.154 240.321 618.526 241.308 619.252C243.776 621.067 245.907 623.343 248.354 625.601C244.054 637.248 248.251 645.71 261.667 647.212C262.078 647.186 262.031 647.227 262.185 647.469C262.925 647.873 263.51 648.035 264.095 648.196C264.095 648.196 264.021 648.234 264.186 648.472C264.948 648.881 265.546 649.052 266.143 649.223C266.143 649.223 266.581 649.255 266.919 649.525C267.489 650.034 267.771 650.176 268.102 650.22C268.102 650.22 268.024 650.236 268.145 650.529C271.55 652.949 274.834 655.077 278.119 657.204C278.119 657.204 278.023 657.265 278.031 657.634C278.247 662.912 281.896 667.879 277.794 672.731C277.006 670.842 277.43 668.819 276.887 667.103C276.348 665.4 274.835 664.008 273.749 662.479C273.749 662.479 273.866 662.43 273.791 662.213C273.402 661.799 273.088 661.603 272.773 661.407C272.773 661.407 272.889 661.398 272.87 661.079C272.097 660.457 271.344 660.153 270.59 659.85C270.59 659.85 270.79 659.489 270.705 659.267C263.606 656.479 256.599 653.894 249.555 651.412C249.22 651.294 248.565 652.088 248.058 652.457Z" fill="#2A4A6B"/>
<path d="M466.122 701.796C465.966 702.266 465.809 702.736 465.057 703.349C464.009 704.504 463.557 705.516 463.105 706.528C463.105 706.528 463.069 706.438 462.928 706.487C462.689 706.614 462.495 706.736 462.507 706.762C462.606 706.975 462.743 707.169 462.869 707.369C463.021 707.673 462.998 707.963 462.281 708.473C461.558 709.33 461.352 709.951 461.146 710.573C461.146 710.573 461.105 710.478 460.883 710.577C460.47 711.001 460.279 711.326 460.089 711.651C458.695 714.361 457.301 717.071 455.353 720.178C454.556 721.223 454.311 721.87 454.067 722.517C454.067 722.517 454.025 722.439 453.892 722.489C453.662 722.605 453.476 722.688 453.485 722.736C453.524 722.952 453.618 723.157 453.692 723.366C451.021 727.556 448.07 731.603 445.81 736.006C444.852 737.872 444.675 740.705 445.331 742.709C446.4 745.974 448.439 748.921 450.076 751.998C458.147 767.169 456.136 783.333 444.337 796.47C444.109 796.675 444.179 796.673 444.179 796.673C445.193 793.756 446.261 790.855 447.206 787.915C448.036 785.331 448.729 782.703 449.849 778.827C440.467 786.097 430.912 785.77 421.218 784.747C425.062 784.048 428.921 783.42 432.745 782.622C435.169 782.116 437.642 781.601 439.919 780.664C448.134 777.282 450.606 771.074 446.976 762.999C445.755 760.281 444.123 757.75 442.7 755.121C441.358 752.641 440.043 750.145 438.175 746.639C431.164 756.206 424.463 765.351 417.453 774.633C417.711 772.918 418.302 771.073 418.838 769.213C419.239 767.824 419.57 766.415 419.932 765.015C419.442 764.752 418.953 764.49 418.463 764.227C415.794 767.56 413.125 770.893 410.121 774.328C414.025 767.133 418.066 759.711 422.554 752.569C428.052 743.82 434.055 735.39 439.584 726.659C442.939 721.362 445.811 715.759 448.911 710.273C441.573 713.164 434.117 715.428 427.346 718.996C422.521 721.539 417.338 725.03 414.533 729.497C405.359 744.105 397.918 759.599 398.174 777.55C398.206 779.848 398.494 782.143 398.29 784.399C393.16 764.289 399.081 745.733 406.746 726.908C397.845 726.799 388.617 726.815 383.874 717.629C382.461 714.892 383.236 711.021 383.708 707.655C384.929 716.453 388.707 719.982 398.041 720.517C404.281 720.875 410.023 720.693 415.09 715.708C418.035 712.81 422.659 711.663 426.449 709.584C432.279 706.386 438.141 703.226 443.811 699.757C452.464 694.461 457.595 686.692 458.243 676.479C458.748 668.533 458.617 660.548 458.12 652.11C453.461 652.604 449.401 653.405 445.464 654.611C443.867 655.1 442.539 656.47 441.089 657.439C441.089 657.439 441.043 657.342 440.723 657.337C439.658 657.773 438.913 658.213 438.168 658.654C438.168 658.654 438.139 658.51 437.859 658.476C437.138 658.867 436.697 659.293 436.256 659.719C436.256 659.719 436.174 659.548 435.968 659.578C435.534 659.916 435.304 660.225 435.074 660.533C434.642 661.078 434.209 661.622 433.146 662.245C427.108 662.133 430.59 658.253 429.938 656.089C429.921 655.766 430.045 655.51 430.8 655.167C431.505 654.693 431.719 654.374 431.933 654.055C431.965 653.708 432.141 653.466 433.057 653.295C434.422 652.572 435.191 651.885 435.96 651.197C435.96 651.197 435.964 651.244 435.944 651.23C444.675 649.877 452.32 645.816 458.467 639.831C461.16 637.208 461.365 632.131 463.045 628.322C464.695 624.581 466.781 621.034 469.41 617.3C472.045 624.356 477.099 630.266 476.245 638.657C475.582 645.164 476.232 651.807 476.373 658.389C476.378 658.639 477.153 658.872 477.922 659.142C478.274 659.171 478.339 659.098 478.339 659.098C478.225 661.221 478.111 663.345 478.002 665.927C478.006 666.384 477.72 666.56 477.186 666.583C474.806 674.635 472.959 682.665 471.113 690.694C471.113 690.694 471.192 691.035 470.756 691.239C468.92 694.895 467.521 698.345 466.122 701.796Z" fill="#2A4A6B"/>
<path d="M511.527 687.077C511.277 686.829 511.19 686.426 511.166 685.719C511.383 685.916 511.536 686.419 511.527 687.077Z" fill="#2A4A6B"/>
<path d="M226.883 667.364C219.53 677.531 216.292 688.826 220.237 701.159C221.957 706.537 225.586 711.302 228.087 717.136C225.142 714.401 221.111 712.188 219.497 708.814C216.836 703.247 215.843 696.897 213.919 690.951C213.28 688.974 212.318 686.812 210.844 685.454C207.188 682.088 203.152 679.136 199.112 675.726C199.048 673.827 199.14 672.219 199.364 670.258C203.908 674.582 208.321 679.259 212.166 683.334C216.504 675.847 220.406 669.112 224.616 662.221C226.269 663.572 221.969 666.783 226.883 667.364Z" fill="#2A4A6B"/>
<path d="M204.223 611.115C206.29 608.445 208.728 605.809 211.473 603.048C209.386 605.664 206.99 608.407 204.223 611.115Z" fill="#2A4A6B"/>
<path d="M180.899 661.472C180.405 663.029 179.537 664.56 178.389 666.269C178.915 664.78 179.72 663.114 180.899 661.472Z" fill="#2A4A6B"/>
<path d="M200.168 616.068C200.657 614.841 201.52 613.634 202.668 612.278C202.149 613.448 201.346 614.768 200.168 616.068Z" fill="#2A4A6B"/>
<path d="M196.156 621.071C196.643 619.839 197.507 618.629 198.656 617.27C198.138 618.445 197.335 619.769 196.156 621.071Z" fill="#2A4A6B"/>
<path d="M190.091 629.036C190.546 627.765 191.387 626.54 192.513 625.153C192.024 626.355 191.251 627.719 190.091 629.036Z" fill="#2A4A6B"/>
<path d="M213.158 602.025C213.594 601.045 214.429 600.128 215.552 599.09C215.079 600.009 214.318 601.049 213.158 602.025Z" fill="#2A4A6B"/>
<path d="M184.85 655.177C184.577 656.295 184.105 657.2 183.371 658.27C183.623 657.278 184.137 656.12 184.85 655.177Z" fill="#2A4A6B"/>
<path d="M182.779 658.398C182.689 659.318 182.223 660.256 181.489 661.366C181.615 660.498 182.009 659.458 182.779 658.398Z" fill="#2A4A6B"/>
<path d="M193.121 625.051C193.296 624.163 193.843 623.292 194.664 622.271C194.456 623.103 193.975 624.087 193.121 625.051Z" fill="#2A4A6B"/>
<path d="M171.848 677.54C172.135 678.404 172.128 679.452 172.138 680.896C171.955 680.102 171.755 678.913 171.848 677.54Z" fill="#2A4A6B"/>
<path d="M172.073 681.563C172.486 681.97 172.873 682.744 173.308 683.85C172.92 683.431 172.483 682.682 172.073 681.563Z" fill="#2A4A6B"/>
<path d="M174.106 672.656C174.137 673.375 173.816 674.154 173.253 675.137C173.258 674.466 173.506 673.591 174.106 672.656Z" fill="#2A4A6B"/>
<path d="M175.976 669.546C176.056 669.999 175.828 670.556 175.339 671.271C175.275 670.837 175.471 670.244 175.976 669.546Z" fill="#2A4A6B"/>
<path d="M172.761 675.499C172.869 675.907 172.72 676.492 172.33 677.265C172.227 676.861 172.365 676.268 172.761 675.499Z" fill="#2A4A6B"/>
<path d="M177.115 667.659C177.213 668.157 176.967 668.697 176.466 669.387C176.397 668.925 176.585 668.312 177.115 667.659Z" fill="#2A4A6B"/>
<path d="M175.237 688.403C175.633 688.543 175.96 689.03 176.349 689.812C175.996 689.655 175.582 689.202 175.237 688.403Z" fill="#2A4A6B"/>
<path d="M174.204 686.421C174.595 686.561 174.932 687.046 175.328 687.831C174.975 687.676 174.562 687.222 174.204 686.421Z" fill="#2A4A6B"/>
<path d="M173.205 684.414C173.587 684.568 173.913 685.066 174.292 685.868C173.946 685.7 173.547 685.229 173.205 684.414Z" fill="#2A4A6B"/>
<path d="M174.871 671.487C175.023 671.703 174.92 672.049 174.583 672.536C174.438 672.324 174.527 671.97 174.871 671.487Z" fill="#2A4A6B"/>
<path d="M188.004 631.002C187.932 630.768 188.142 630.475 188.615 630.09C188.681 630.313 188.483 630.627 188.004 631.002Z" fill="#2A4A6B"/>
<path d="M189.044 630.023C188.942 629.79 189.115 629.471 189.543 629.042C189.638 629.266 189.478 629.601 189.044 630.023Z" fill="#2A4A6B"/>
<path d="M195.148 622.061C195.054 621.853 195.209 621.53 195.616 621.094C195.711 621.302 195.554 621.624 195.148 622.061Z" fill="#2A4A6B"/>
<path d="M199.154 617.053C199.063 616.846 199.219 616.524 199.626 616.095C199.719 616.305 199.56 616.622 199.154 617.053Z" fill="#2A4A6B"/>
<path d="M203.168 612.052C203.091 611.853 203.255 611.543 203.67 611.133C203.75 611.335 203.58 611.638 203.168 612.052Z" fill="#2A4A6B"/>
<path d="M212.008 602.943C211.92 602.7 212.114 602.393 212.573 601.997C212.655 602.232 212.473 602.556 212.008 602.943Z" fill="#2A4A6B"/>
<path d="M177.9 666.49C178.051 666.711 177.939 667.053 177.594 667.537C177.453 667.322 177.545 666.966 177.9 666.49Z" fill="#2A4A6B"/>
<path d="M288.284 830.549C289.907 826.884 290.029 823.254 288.358 819.243C287.535 817.266 285.968 814.039 290.134 812.901C291.74 815.569 292.721 819.254 294.857 820.139C296.806 820.947 299.952 818.41 302.673 817.923C305.117 817.485 307.7 817.831 309.599 817.831C305.583 822.125 301.636 826.345 297.398 830.758C297.899 828.027 298.692 825.102 299.598 821.756C296.754 822.203 294.228 822.601 292.246 822.913C290.924 825.712 289.793 828.106 288.284 830.549Z" fill="#2A4A6B"/>
<path d="M257.342 811.552C262.938 806.847 269.23 809.363 276.168 811.701C274.374 813.004 272.579 814.307 270.441 815.679C271.392 811.995 269.692 810.456 266.117 810.641C263.326 810.786 260.553 811.25 257.342 811.552Z" fill="#2A4A6B"/>
<path d="M299.3 842.655C304.788 842.313 310.425 842.341 316.488 842.362C311.228 846.147 305.364 845.263 299.3 842.655Z" fill="#2A4A6B"/>
<path d="M326.941 826.485C325.477 825.866 324.049 824.85 322.201 823.534C324.802 822.296 326.53 821.474 328.595 820.565C328.281 822.349 327.63 824.219 326.941 826.485Z" fill="#2A4A6B"/>
<path d="M266.947 817.848C267.255 820.122 267.18 822.476 267.127 825.201C263.87 823.26 264.141 820.677 266.947 817.848Z" fill="#2A4A6B"/>
<path d="M326.045 835.39C326.278 833.173 326.847 830.826 327.431 828.069C331.187 830.768 327.275 832.802 326.045 835.39Z" fill="#2A4A6B"/>
<path d="M254.289 813.05C254.809 812.428 255.564 812.02 256.635 811.551C256.141 812.081 255.332 812.672 254.289 813.05Z" fill="#2A4A6B"/>
<path d="M334.256 815.507C334.397 814.631 334.901 813.726 335.67 812.654C335.496 813.484 335.057 814.482 334.256 815.507Z" fill="#2A4A6B"/>
<path d="M277.229 834.907C278.372 834.589 279.751 834.543 281.545 834.46C280.461 834.675 278.963 834.927 277.229 834.907Z" fill="#2A4A6B"/>
<path d="M295.953 833.838C296.182 834.745 296.1 835.786 295.9 837.201C295.734 836.373 295.688 835.172 295.953 833.838Z" fill="#2A4A6B"/>
<path d="M282.199 834.544C282.642 834.171 283.448 833.838 284.604 833.466C284.156 833.813 283.359 834.199 282.199 834.544Z" fill="#2A4A6B"/>
<path d="M285.161 833.509C285.366 832.952 285.909 832.399 286.727 831.737C286.501 832.256 286 832.884 285.161 833.509Z" fill="#2A4A6B"/>
<path d="M250.141 812.634C250.479 812.455 250.908 812.522 251.639 812.71C251.371 812.848 250.801 812.865 250.141 812.634Z" fill="#2A4A6B"/>
<path d="M336.166 812.408C336.066 811.983 336.244 811.401 336.67 810.639C336.76 811.056 336.601 811.653 336.166 812.408Z" fill="#2A4A6B"/>
<path d="M317.12 842.479C317.277 842.095 317.772 841.752 318.583 841.384C318.418 841.746 317.938 842.134 317.12 842.479Z" fill="#2A4A6B"/>
<path d="M274.203 833.748C274.662 833.634 275.285 833.822 276.101 834.278C275.652 834.381 275.009 834.215 274.203 833.748Z" fill="#2A4A6B"/>
<path d="M320.321 840.594C320.449 840.251 320.898 839.867 321.631 839.378C321.491 839.699 321.067 840.126 320.321 840.594Z" fill="#2A4A6B"/>
<path d="M269.797 815.679C269.688 816.084 269.245 816.484 268.495 816.914C268.613 816.52 269.038 816.097 269.797 815.679Z" fill="#2A4A6B"/>
<path d="M268.084 827.823C268.472 827.946 268.859 828.401 269.283 829.164C268.908 829.032 268.495 828.594 268.084 827.823Z" fill="#2A4A6B"/>
<path d="M331.928 818.294C331.887 817.828 332.169 817.33 332.719 816.704C332.742 817.138 332.496 817.7 331.928 818.294Z" fill="#2A4A6B"/>
<path d="M296.269 840.6C296.727 840.538 297.258 840.799 297.946 841.32C297.516 841.36 296.929 841.142 296.269 840.6Z" fill="#2A4A6B"/>
<path d="M267.08 825.81C267.417 825.98 267.752 826.472 268.116 827.273C267.79 827.099 267.435 826.616 267.08 825.81Z" fill="#2A4A6B"/>
<path d="M330.293 819.556C330.359 819.149 330.75 818.716 331.431 818.241C331.354 818.643 330.985 819.087 330.293 819.556Z" fill="#2A4A6B"/>
<path d="M272.24 832.631C272.707 832.536 273.275 832.759 273.998 833.252C273.549 833.332 272.945 833.14 272.24 832.631Z" fill="#2A4A6B"/>
<path d="M296.748 831.798C296.917 832.24 296.821 832.863 296.447 833.654C296.274 833.208 296.378 832.593 296.748 831.798Z" fill="#2A4A6B"/>
<path d="M319.027 841.459C318.992 841.245 319.218 840.978 319.719 840.675C319.758 840.894 319.524 841.149 319.027 841.459Z" fill="#2A4A6B"/>
<path d="M325.011 836.462C324.921 836.221 325.111 835.883 325.583 835.457C325.673 835.701 325.482 836.033 325.011 836.462Z" fill="#2A4A6B"/>
<path d="M271.191 831.672C271.447 831.559 271.789 831.725 272.205 832.176C271.944 832.291 271.611 832.121 271.191 831.672Z" fill="#2A4A6B"/>
<path d="M298.159 841.787C298.396 841.645 298.754 841.757 299.206 842.138C298.96 842.284 298.62 842.163 298.159 841.787Z" fill="#2A4A6B"/>
<path d="M270.188 830.67C270.431 830.58 270.756 830.767 271.154 831.236C270.908 831.328 270.588 831.138 270.188 830.67Z" fill="#2A4A6B"/>
<path d="M295.824 839.762C295.989 839.645 296.311 839.914 296.351 840.119C296.146 840.175 295.902 840.027 295.824 839.762Z" fill="#2A4A6B"/>
<path d="M269.225 829.627C269.481 829.54 269.793 829.741 270.171 830.227C269.918 830.314 269.599 830.114 269.225 829.627Z" fill="#2A4A6B"/>
<path d="M268.009 816.845C268.124 817.124 267.945 817.452 267.479 817.846C267.366 817.572 267.54 817.233 268.009 816.845Z" fill="#2A4A6B"/>
<path d="M333.207 816.469C333.143 816.285 333.308 815.982 333.72 815.585C333.79 815.778 333.613 816.065 333.207 816.469Z" fill="#2A4A6B"/>
<path d="M329.126 820.471C329.08 820.279 329.277 819.994 329.73 819.638C329.781 819.838 329.575 820.108 329.126 820.471Z" fill="#2A4A6B"/>
<path d="M408.993 777.297C408.93 776.481 409.145 775.556 409.612 774.485C409.665 775.289 409.468 776.239 408.993 777.297Z" fill="#2A4A6B"/>
<path d="M412.704 783.84C412.853 784.303 412.734 784.988 412.337 785.898C412.184 785.436 412.309 784.749 412.704 783.84Z" fill="#2A4A6B"/>
<path d="M404.938 824.325C402.502 823.353 400.068 822.008 397.727 820.518C396.916 820.002 396.333 819.126 395.645 818.414C396.658 817.856 397.695 816.793 398.679 816.84C400.977 816.95 403.27 817.508 405.53 818.034C413.034 819.78 413.486 819.505 414.457 812.166C418.919 813.102 420.625 815.95 417.749 819.19C414.391 822.972 416.123 825.712 417.986 829.245C416.235 826.972 414.411 824.354 412.167 821.133C410.426 821.671 406.073 817.719 404.938 824.325Z" fill="#2A4A6B"/>
<path d="M437.734 816.575C435.355 815.704 432.926 814.45 430.32 813.103C435.731 808.358 443.667 808.428 448.994 813.214C444.997 812.728 440.862 811.904 436.726 811.08C436.448 811.568 436.171 812.056 435.893 812.544C436.489 813.76 437.086 814.976 437.734 816.575Z" fill="#2A4A6B"/>
<path d="M409.289 841.547C408.885 838.666 409.342 835.646 408.693 832.887C408.071 830.247 406.298 827.88 404.936 825.051C410.791 826.878 409.93 832.85 411.595 837.322C411.974 838.34 410.363 840.102 409.289 841.547Z" fill="#2A4A6B"/>
<path d="M377.133 819.767C378.415 820.05 379.819 820.55 380.943 821.415C382.108 822.313 383.649 823.485 383.794 824.687C383.895 825.523 381.918 826.612 380.521 827.714C379.159 825.275 378.145 822.71 377.133 819.767Z" fill="#2A4A6B"/>
<path d="M389.257 842.71C394.763 842.438 400.44 842.505 406.538 842.542C401.253 847.188 395.354 845.577 389.257 842.71Z" fill="#2A4A6B"/>
<path d="M421.252 833.666C425.661 835.649 429.933 835.09 434.437 832.331C430.028 837.228 426.531 837.685 421.252 833.666Z" fill="#2A4A6B"/>
<path d="M379.891 827.819C380.59 830.364 380.937 833.008 381.325 836.051C379.033 833.977 376.583 831.53 379.891 827.819Z" fill="#2A4A6B"/>
<path d="M439.107 826.385C439.079 824.209 439.389 821.861 439.683 819.113C439.593 821.213 439.519 823.714 439.107 826.385Z" fill="#2A4A6B"/>
<path d="M450.264 813.937C451.722 813.228 453.413 812.776 455.48 812.288C454.069 812.899 452.284 813.546 450.264 813.937Z" fill="#2A4A6B"/>
<path d="M437.306 829.542C437.401 828.644 437.857 827.701 438.581 826.592C438.456 827.449 438.061 828.473 437.306 829.542Z" fill="#2A4A6B"/>
<path d="M382.185 837.72C382.759 837.908 383.403 838.413 384.142 839.218C383.577 839.025 382.915 838.531 382.185 837.72Z" fill="#2A4A6B"/>
<path d="M384.208 839.684C384.634 839.629 385.167 839.873 385.863 840.369C385.455 840.408 384.885 840.195 384.208 839.684Z" fill="#2A4A6B"/>
<path d="M418.054 829.884C418.431 829.997 418.827 830.435 419.272 831.173C418.905 831.051 418.489 830.63 418.054 829.884Z" fill="#2A4A6B"/>
<path d="M435.955 831.358C435.903 830.904 436.168 830.379 436.699 829.71C436.734 830.14 436.503 830.714 435.955 831.358Z" fill="#2A4A6B"/>
<path d="M372.068 814.832C372.467 814.927 372.88 815.352 373.335 816.078C372.945 815.973 372.513 815.567 372.068 814.832Z" fill="#2A4A6B"/>
<path d="M375.323 818.515C375.82 818.423 376.358 818.672 377.04 819.192C376.577 819.26 375.971 819.057 375.323 818.515Z" fill="#2A4A6B"/>
<path d="M387.227 841.674C387.703 841.537 388.302 841.715 389.057 842.166C388.593 842.289 387.972 842.139 387.227 841.674Z" fill="#2A4A6B"/>
<path d="M407.202 842.559C407.374 842.238 407.861 841.916 408.65 841.566C408.474 841.879 407.995 842.219 407.202 842.559Z" fill="#2A4A6B"/>
<path d="M419.228 831.624C419.489 831.526 419.811 831.718 420.204 832.194C419.947 832.29 419.618 832.102 419.228 831.624Z" fill="#2A4A6B"/>
<path d="M386.145 840.851C386.357 840.739 386.697 840.863 387.138 841.246C386.917 841.366 386.596 841.226 386.145 840.851Z" fill="#2A4A6B"/>
<path d="M381.263 836.607C381.524 836.529 381.819 836.744 382.176 837.243C381.924 837.318 381.61 837.109 381.263 836.607Z" fill="#2A4A6B"/>
<path d="M420.218 832.639C420.481 832.523 420.817 832.695 421.232 833.149C420.972 833.263 420.632 833.095 420.218 832.639Z" fill="#2A4A6B"/>
<path d="M434.961 832.355C434.845 832.07 435.028 831.742 435.498 831.351C435.61 831.629 435.435 831.971 434.961 832.355Z" fill="#2A4A6B"/>
<path d="M439.748 818.625C439.476 818.727 439.156 818.531 438.768 818.049C439.034 817.951 439.367 818.14 439.748 818.625Z" fill="#2A4A6B"/>
<path d="M374.271 817.558C374.566 817.417 374.9 817.578 375.295 818.02C375.007 818.154 374.659 818.006 374.271 817.558Z" fill="#2A4A6B"/>
<path d="M438.77 817.603C438.497 817.725 438.157 817.554 437.747 817.098C438.019 816.978 438.362 817.144 438.77 817.603Z" fill="#2A4A6B"/>
<path d="M373.268 816.562C373.555 816.439 373.884 816.615 374.274 817.076C373.994 817.195 373.651 817.029 373.268 816.562Z" fill="#2A4A6B"/>
<path d="M371.202 813.611C371.428 813.56 371.709 813.781 372.042 814.282C371.815 814.335 371.536 814.109 371.202 813.611Z" fill="#2A4A6B"/>
<path d="M294.272 785.364C294.13 785.476 293.886 785.062 293.866 784.823C294.036 784.807 294.225 785.029 294.272 785.364Z" fill="#2A4A6B"/>
<path d="M330.034 652.009C327.468 645.88 325.238 639.574 323.194 633.794C317.636 636.489 313.259 639.097 308.554 640.794C297.727 644.699 294.59 648.926 295.114 660.425C295.239 663.177 295.647 665.915 295.978 669.186C285.774 655.962 290.516 640.542 305.612 635.991C308.47 635.129 311.712 634.636 313.972 632.913C317.298 630.378 319.9 626.89 323.172 623.425C323.659 625.729 323.818 629.13 325.132 632C326.629 635.27 329.157 638.067 331.353 641.378C330.914 643.057 329.997 644.399 329.889 645.804C329.736 647.789 330.181 649.82 330.034 652.009Z" fill="#2A4A6B"/>
<path d="M332.089 643.449C332.43 643.614 332.767 644.104 333.14 644.899C332.812 644.728 332.448 644.251 332.089 643.449Z" fill="#2A4A6B"/>
<path d="M335.134 646.455C335.004 646.307 335.074 646.005 335.209 645.933C335.447 646.094 335.549 646.326 335.651 646.559C335.522 646.574 335.393 646.588 335.134 646.455Z" fill="#2A4A6B"/>
<path d="M331.423 642.153C331.694 642.14 331.898 642.408 332.123 642.938C331.881 642.945 331.619 642.69 331.423 642.153Z" fill="#2A4A6B"/>
<path d="M215.027 755.744C218.076 758.15 221.102 760.916 224.127 763.682C223.817 763.969 223.506 764.256 223.195 764.542C219.727 762.906 216.26 761.269 212.455 759.537C213.08 758.329 214.042 757.216 215.027 755.744Z" fill="#2A4A6B"/>
<path d="M207.179 751.59C209.621 752.448 212.166 753.652 214.902 755.14C212.489 754.262 209.885 753.098 207.179 751.59Z" fill="#2A4A6B"/>
<path d="M205.217 750.489C205.666 750.404 206.239 750.628 206.992 751.106C206.561 751.172 205.951 750.984 205.217 750.489Z" fill="#2A4A6B"/>
<path d="M204.2 749.479C204.445 749.39 204.773 749.584 205.186 750.063C204.942 750.152 204.613 749.958 204.2 749.479Z" fill="#2A4A6B"/>
<path d="M500.285 750.445C500.412 750.091 500.857 749.712 501.618 749.279C501.49 749.624 501.046 750.022 500.285 750.445Z" fill="#2A4A6B"/>
<path d="M374.412 646.441C375.342 643.974 376.32 641.467 377.833 639.342C380.906 635.028 384.594 631.07 383.713 625.119C383.631 624.567 384.079 623.895 384.396 623.345C384.527 623.117 384.96 623.062 386.007 622.589C387.334 631.113 393.976 633.595 401.004 635.459C415.116 639.201 420.048 653.286 412.211 668.199C412.211 664.43 412.332 660.988 412.187 657.558C411.852 649.621 408.139 644.145 400.576 641.166C395.391 639.124 390.432 636.506 384.403 633.694C382.41 639.179 380.19 645.289 378.104 651.781C377.637 651.242 377.027 650.327 376.439 649.397C375.849 648.464 375.28 647.516 374.412 646.441Z" fill="#2A4A6B"/>
<path d="M381.122 654.446C392.564 659.83 397.818 672.865 392.14 682.943C390.651 672.723 388.912 663.069 376.38 661.216C376.935 660.708 377.835 659.943 378.834 659.78C379.731 659.632 380.734 660.154 381.694 660.366C382.597 660.565 383.504 660.745 385.652 661.193C383.699 658.454 382.401 656.634 381.122 654.446Z" fill="#2A4A6B"/>
<path d="M369.931 668.549C367.159 675.475 365.773 682.694 368.401 690.672C364.421 686.149 364.965 675.13 369.931 668.549Z" fill="#2A4A6B"/>
<path d="M367.015 635.565C367.747 636.97 368.472 638.782 369.261 640.977C368.553 639.565 367.781 637.768 367.015 635.565Z" fill="#2A4A6B"/>
<path d="M378.145 652.438C379.047 652.572 379.949 653.083 381.019 653.859C380.172 653.688 379.159 653.251 378.145 652.438Z" fill="#2A4A6B"/>
<path d="M371.1 666.629C371.193 667.12 370.946 667.668 370.442 668.372C370.376 667.915 370.568 667.3 371.1 666.629Z" fill="#2A4A6B"/>
<path d="M368.315 691.361C368.731 691.482 369.045 691.951 369.439 692.698C369.084 692.554 368.648 692.132 368.315 691.361Z" fill="#2A4A6B"/>
<path d="M373.169 663.709C373.221 664.212 372.931 664.709 372.383 665.338C372.359 664.881 372.593 664.293 373.169 663.709Z" fill="#2A4A6B"/>
<path d="M369.378 693.24C369.637 693.204 369.875 693.464 370.167 693.992C369.933 694.019 369.645 693.777 369.378 693.24Z" fill="#2A4A6B"/>
<path d="M371.921 665.495C372.059 665.722 371.929 666.063 371.557 666.539C371.427 666.319 371.539 665.964 371.921 665.495Z" fill="#2A4A6B"/>
<path d="M374.092 662.633C374.233 662.901 374.07 663.198 373.678 663.616C373.563 663.379 373.675 663.02 374.092 662.633Z" fill="#2A4A6B"/>
<path d="M375.23 661.494C375.319 661.759 375.08 662.101 374.547 662.562C374.47 662.311 374.686 661.941 375.23 661.494Z" fill="#2A4A6B"/>
<path d="M273.864 662.856C274.835 664.008 276.348 665.4 276.887 667.103C277.43 668.819 277.006 670.842 277.794 672.731C281.896 667.879 278.247 662.912 278.062 657.586C282.016 661.905 282.468 667.471 281.372 673.142C280.709 676.573 281.624 678.223 284.853 679.527C292.546 682.635 298.614 687.662 301.437 694.013C295.049 690.57 287.852 686.456 280.43 682.802C277.29 681.256 276.14 679.237 275.886 675.895C275.563 671.65 274.642 667.451 273.864 662.856Z" fill="#2A4A6B"/>
<path d="M248.416 652.505C248.565 652.088 249.22 651.294 249.555 651.412C256.599 653.894 263.606 656.479 270.583 659.433C263.288 657.399 256.031 654.976 248.416 652.505Z" fill="#2A4A6B"/>
<path d="M278.023 656.875C274.834 655.077 271.55 652.949 268.154 650.49C271.337 652.288 274.632 654.417 278.023 656.875Z" fill="#2A4A6B"/>
<path d="M270.771 660.068C271.344 660.153 272.097 660.456 272.85 661.134C272.217 661.101 271.584 660.693 270.771 660.068Z" fill="#2A4A6B"/>
<path d="M266.006 648.928C265.546 649.052 264.948 648.881 264.192 648.431C264.645 648.312 265.257 648.472 266.006 648.928Z" fill="#2A4A6B"/>
<path d="M263.966 647.906C263.51 648.034 262.925 647.873 262.185 647.438C262.632 647.315 263.234 647.465 263.966 647.906Z" fill="#2A4A6B"/>
<path d="M268.013 649.96C267.771 650.175 267.489 650.033 267.128 649.59C267.308 649.492 267.616 649.597 268.013 649.96Z" fill="#2A4A6B"/>
<path d="M272.864 661.672C273.088 661.603 273.402 661.799 273.786 662.276C273.555 662.35 273.255 662.144 272.864 661.672Z" fill="#2A4A6B"/>
<path d="M429.632 656.273C430.59 658.253 427.108 662.133 432.906 662.358C432.547 665.756 430.99 669.178 431.225 672.472C431.622 678.028 428.665 680.46 424.518 682.857C418.063 686.59 411.846 690.737 406.289 694.231C407.936 688.652 412.696 683.668 419.004 680.554C423.793 678.191 425.418 675.483 425.312 669.979C425.226 665.499 427.885 660.967 429.632 656.273Z" fill="#2A4A6B"/>
<path d="M441.477 657.419C442.539 656.47 443.867 655.1 445.464 654.611C449.401 653.405 453.461 652.604 457.727 651.897C452.609 653.902 447.237 655.65 441.477 657.419Z" fill="#2A4A6B"/>
<path d="M435.649 651.254C435.191 651.885 434.422 652.572 433.287 653.257C433.728 652.607 434.533 651.959 435.649 651.254Z" fill="#2A4A6B"/>
<path d="M438.497 658.606C438.913 658.213 439.658 657.773 440.771 657.36C440.369 657.778 439.598 658.168 438.497 658.606Z" fill="#2A4A6B"/>
<path d="M436.551 659.652C436.697 659.293 437.138 658.867 437.927 658.502C437.799 658.904 437.322 659.244 436.551 659.652Z" fill="#2A4A6B"/>
<path d="M423.29 630.503C423.576 630.51 423.643 630.708 423.71 630.907C423.497 630.837 423.284 630.766 423.29 630.503Z" fill="#2A4A6B"/>
<path d="M435.348 660.451C435.304 660.225 435.534 659.916 436.064 659.58C436.116 659.825 435.869 660.097 435.348 660.451Z" fill="#2A4A6B"/>
<path d="M431.662 654.16C431.719 654.374 431.505 654.693 431.012 655.109C430.952 654.892 431.171 654.579 431.662 654.16Z" fill="#2A4A6B"/>
<path d="M471.425 690.476C472.959 682.665 474.806 674.635 477.032 666.514C475.521 674.368 473.629 682.313 471.425 690.476Z" fill="#2A4A6B"/>
<path d="M466.404 701.554C467.521 698.345 468.921 694.895 470.672 691.392C469.578 694.664 468.132 697.988 466.404 701.554Z" fill="#2A4A6B"/>
<path d="M463.401 706.393C463.557 705.516 464.009 704.504 464.833 703.467C464.703 704.382 464.2 705.32 463.401 706.393Z" fill="#2A4A6B"/>
<path d="M461.412 710.401C461.352 709.951 461.558 709.33 462.09 708.597C462.171 709.066 461.924 709.648 461.412 710.401Z" fill="#2A4A6B"/>
<path d="M480.01 716.454C479.75 716.899 479.226 717.115 478.703 717.331C478.725 716.955 478.748 716.58 478.969 716.021C479.359 715.967 479.553 716.096 480.01 716.454Z" fill="#2A4A6B"/>
<path d="M454.353 722.326C454.311 721.87 454.556 721.223 455.123 720.4C455.177 720.861 454.908 721.498 454.353 722.326Z" fill="#2A4A6B"/>
<path d="M453.86 723.17C453.618 723.157 453.524 722.952 453.485 722.736C453.476 722.688 453.663 722.605 453.935 722.5C454.083 722.633 454.055 722.803 453.86 723.17Z" fill="#2A4A6B"/>
<path d="M387.485 813.937C387.442 813.982 387.529 813.893 387.485 813.937V813.937Z" fill="#2A4A6B"/>
<path d="M444.093 796.706C444.076 796.737 443.928 796.62 443.928 796.62C443.928 796.62 444.083 796.795 444.131 796.734C444.179 796.673 444.109 796.675 444.093 796.706Z" fill="#2A4A6B"/>
<path d="M468.956 774.462C468.828 774.771 468.613 774.983 468.397 775.196C468.358 774.95 468.318 774.705 468.489 774.313C468.701 774.167 468.869 774.365 468.956 774.462Z" fill="#2A4A6B"/>
<path d="M460.353 711.535C460.279 711.326 460.47 711.001 460.934 710.578C461.011 710.793 460.814 711.106 460.353 711.535Z" fill="#2A4A6B"/>
<path d="M462.966 707.151C462.743 707.169 462.606 706.975 462.507 706.762C462.495 706.736 462.689 706.614 462.975 706.501C463.162 706.465 463.063 706.932 462.966 707.151Z" fill="#2A4A6B"/>
<path d="M228.927 636.999C225.35 639.857 221.303 641.813 218.426 644.874C215.582 647.899 213.921 652.039 211.741 655.69C211.317 648.285 218.069 637.557 225.896 633.164C227.026 632.53 228.108 631.811 229.545 630.991C229.575 632.761 229.273 634.672 228.927 636.999Z" fill="#2A4A6B"/>
<path d="M229.453 658.19C228.994 651.614 228.928 644.945 228.842 637.816C229.4 637.585 230.486 637.827 230.482 638.045C230.336 644.73 230.083 651.413 229.453 658.19Z" fill="#2A4A6B"/>
<path d="M226.14 661.214C226.278 660.832 226.767 660.443 227.574 659.969C227.425 660.325 226.958 660.766 226.14 661.214Z" fill="#2A4A6B"/>
<path d="M317.427 811.263C318.077 811.747 318.5 812.372 318.923 812.996C318.778 813.162 318.633 813.328 318.488 813.493C317.987 813.109 317.485 812.724 316.893 812.05C316.935 811.642 317.067 811.523 317.427 811.263Z" fill="#2A4A6B"/>
<path d="M261.192 793.348C261.46 793.573 261.63 793.902 261.8 794.231C261.554 794.22 261.309 794.209 260.981 793.929C260.898 793.659 261.094 793.452 261.192 793.348Z" fill="#2A4A6B"/>
<path d="M57.0295 976V886.4H64.8375L105.798 956.288H101.702L142.278 886.4H150.086V976H140.998V900.608H143.174L105.798 964.608H101.318L63.6855 900.608H66.1175V976H57.0295ZM177.36 976V908.8H186.448V976H177.36ZM181.968 893.952C180.09 893.952 178.512 893.312 177.232 892.032C175.952 890.752 175.312 889.216 175.312 887.424C175.312 885.632 175.952 884.139 177.232 882.944C178.512 881.664 180.09 881.024 181.968 881.024C183.845 881.024 185.424 881.621 186.704 882.816C187.984 884.011 188.624 885.504 188.624 887.296C188.624 889.173 187.984 890.752 186.704 892.032C185.509 893.312 183.93 893.952 181.968 893.952ZM246.039 908.16C251.5 908.16 256.279 909.227 260.375 911.36C264.556 913.408 267.799 916.565 270.103 920.832C272.492 925.099 273.687 930.475 273.687 936.96V976H264.599V937.856C264.599 930.773 262.807 925.44 259.223 921.856C255.724 918.187 250.775 916.352 244.375 916.352C239.596 916.352 235.415 917.333 231.831 919.296C228.332 921.173 225.601 923.947 223.639 927.616C221.761 931.2 220.823 935.552 220.823 940.672V976H211.735V908.8H220.439V927.232L219.031 923.776C221.164 918.912 224.577 915.115 229.271 912.384C233.964 909.568 239.553 908.16 246.039 908.16ZM324.987 976.64C318.587 976.64 312.827 975.189 307.707 972.288C302.672 969.387 298.704 965.376 295.803 960.256C292.901 955.051 291.451 949.077 291.451 942.336C291.451 935.509 292.901 929.536 295.803 924.416C298.704 919.296 302.672 915.328 307.707 912.512C312.827 909.611 318.587 908.16 324.987 908.16C330.875 908.16 336.123 909.483 340.731 912.128C345.424 914.773 349.136 918.656 351.867 923.776C354.683 928.811 356.09 934.997 356.09 942.336C356.09 949.589 354.725 955.776 351.995 960.896C349.264 966.016 345.552 969.941 340.859 972.672C336.251 975.317 330.96 976.64 324.987 976.64ZM325.627 968.576C330.405 968.576 334.672 967.509 338.427 965.376C342.267 963.157 345.253 960.085 347.387 956.16C349.605 952.149 350.715 947.541 350.715 942.336C350.715 937.045 349.605 932.437 347.387 928.512C345.253 924.587 342.267 921.557 338.427 919.424C334.672 917.205 330.405 916.096 325.627 916.096C320.933 916.096 316.709 917.205 312.955 919.424C309.2 921.557 306.213 924.587 303.995 928.512C301.776 932.437 300.667 937.045 300.667 942.336C300.667 947.541 301.776 952.149 303.995 956.16C306.213 960.085 309.2 963.157 312.955 965.376C316.709 967.509 320.933 968.576 325.627 968.576ZM350.971 976V955.776L351.867 942.208L350.587 928.64V881.024H359.675V976H350.971ZM372.569 976L413.529 886.4H422.873L463.833 976H453.849L416.217 891.904H420.057L382.425 976H372.569ZM388.697 952.064L391.513 944.384H443.609L446.425 952.064H388.697ZM504.014 976.64C497.358 976.64 491.384 975.189 486.094 972.288C480.888 969.301 476.792 965.248 473.806 960.128C470.819 954.923 469.326 948.992 469.326 942.336C469.326 935.595 470.819 929.664 473.806 924.544C476.792 919.424 480.888 915.413 486.094 912.512C491.384 909.611 497.358 908.16 504.014 908.16C509.731 908.16 514.894 909.269 519.502 911.488C524.11 913.707 527.736 917.035 530.382 921.472L523.598 926.08C521.294 922.667 518.435 920.149 515.022 918.528C511.608 916.907 507.896 916.096 503.886 916.096C499.107 916.096 494.798 917.205 490.958 919.424C487.118 921.557 484.088 924.587 481.87 928.512C479.651 932.437 478.542 937.045 478.542 942.336C478.542 947.627 479.651 952.235 481.87 956.16C484.088 960.085 487.118 963.157 490.958 965.376C494.798 967.509 499.107 968.576 503.886 968.576C507.896 968.576 511.608 967.765 515.022 966.144C518.435 964.523 521.294 962.048 523.598 958.72L530.382 963.328C527.736 967.68 524.11 971.008 519.502 973.312C514.894 975.531 509.731 976.64 504.014 976.64ZM548.235 976V908.8H556.939V927.104L556.043 923.904C557.92 918.784 561.077 914.901 565.515 912.256C569.952 909.525 575.456 908.16 582.027 908.16V916.992C581.685 916.992 581.344 916.992 581.003 916.992C580.661 916.907 580.32 916.864 579.979 916.864C572.896 916.864 567.349 919.04 563.339 923.392C559.328 927.659 557.323 933.76 557.323 941.696V976H548.235ZM626.529 976.64C619.531 976.64 613.387 975.189 608.097 972.288C602.806 969.301 598.667 965.248 595.681 960.128C592.694 954.923 591.201 948.992 591.201 942.336C591.201 935.68 592.609 929.792 595.425 924.672C598.326 919.552 602.251 915.541 607.201 912.64C612.235 909.653 617.867 908.16 624.097 908.16C630.411 908.16 636.001 909.611 640.865 912.512C645.814 915.328 649.697 919.339 652.513 924.544C655.329 929.664 656.737 935.595 656.737 942.336C656.737 942.763 656.694 943.232 656.609 943.744C656.609 944.171 656.609 944.64 656.609 945.152H598.113V938.368H651.745L648.161 941.056C648.161 936.192 647.094 931.883 644.961 928.128C642.913 924.288 640.097 921.301 636.513 919.168C632.929 917.035 628.79 915.968 624.097 915.968C619.489 915.968 615.35 917.035 611.681 919.168C608.011 921.301 605.153 924.288 603.105 928.128C601.057 931.968 600.033 936.363 600.033 941.312V942.72C600.033 947.84 601.142 952.363 603.361 956.288C605.665 960.128 608.822 963.157 612.833 965.376C616.929 967.509 621.579 968.576 626.785 968.576C630.881 968.576 634.678 967.851 638.177 966.4C641.761 964.949 644.833 962.731 647.393 959.744L652.513 965.632C649.526 969.216 645.771 971.947 641.249 973.824C636.811 975.701 631.905 976.64 626.529 976.64Z" fill="#343434"/>
<path d="M388.027 132.37C374.347 104.031 381.043 73.9361 404.604 54.2058C408.188 51.2042 411.565 49.4261 415.394 53.3956C441.505 80.465 452.156 117.084 420.474 147.367C419.059 148.719 417.081 149.514 414.182 151.295C407.417 140.1 408.527 127.603 404.604 113.898C401.92 127.381 408.392 138.325 406.727 150.396C396.448 147.413 393.389 139.387 388.027 132.37Z" fill="#769F7D"/>
<path d="M328 105.03C324.442 129.131 317.141 141.506 301.556 150.074C298.271 143.855 301.874 138.073 302.552 132.361C303.251 126.465 306.104 120.745 303.173 112.729C299.635 126.545 300.693 139.657 293.914 152.297C280.13 144.804 272.824 133.233 270.208 119.221C265.639 94.7433 274.354 73.9508 290.837 55.7733C296.435 49.6004 300.889 52.0569 305.42 56.9296C317.887 70.3382 326.699 85.4203 328 105.03Z" fill="#769F7D"/>
<path d="M355.23 0C373.36 19.3486 384.812 40.6596 378.023 68.2795C374.877 81.0769 366.398 91.8611 356.619 96.2741C353.012 85.6469 357.3 74.0499 352.634 62.8816C350.474 74.2614 353.553 85.2891 350.194 98.1918C336.016 88.7986 329.903 75.7 327.456 60.4551C324.243 40.4397 338.489 9.17371 355.23 0Z" fill="#769F7D"/>
<path d="M455.173 58.5583C463.057 47.1185 473.237 39.9549 484.918 34.7063C488.856 32.9369 492.519 31.4831 495.711 36.5686C511.526 61.7593 495.849 103.08 467.243 111.019C465.752 111.432 464.043 111.072 462.872 111.072C459.586 107.471 463.057 104.147 461.76 100.475C460.02 102.723 458.455 104.747 455.733 108.265C444.791 91.1258 446.25 75.3733 455.173 58.5583Z" fill="#769F7D"/>
<path d="M216.027 95.6313C203.784 77.2154 205.988 58.3315 211.008 39.284C212.168 34.8844 214.541 31.6315 219.92 33.705C247.917 44.4964 266.717 71.5271 253.885 102.06C253.074 103.989 252.193 105.913 249.174 106.452C243.421 102.833 245.571 94.3152 240.554 89.3111C239.896 96.9426 245.969 103.003 243.298 111.217C231.757 111.164 223.992 104.13 216.027 95.6313Z" fill="#769F7D"/>
<path d="M640.735 195.888C654.02 192.487 666.163 192.166 678 197.275C675.599 230.838 648.781 253.701 621.656 245.978C612.086 243.253 607.912 235.707 611.007 225.991C615.783 210.995 624.979 200.536 640.735 195.888Z" fill="#769F7D"/>
<path d="M98 233.826C96.5697 234.847 94.5524 235.046 94.4331 235.645C91.2682 251.56 78.8315 247.188 69.867 246.142C48.1068 243.603 32.3227 224.73 28 198.721C55.926 182.234 90.6436 199.257 98 233.826Z" fill="#769F7D"/>
<path d="M632.325 263.438C646.27 247.148 664.105 246.397 682.617 248.124C687.843 248.612 690.615 251.017 689.884 257.022C687.169 279.329 666.401 298.773 644.001 299.555C625.399 300.205 618.435 290.206 626.019 273.491C627.518 270.187 629.806 267.234 632.325 263.438Z" fill="#769F7D"/>
<path d="M485.605 187.497C470.942 163.109 482.055 137.442 505.528 121.072C509.015 118.64 511.916 118.317 515.191 121.958C533.013 141.774 528.092 178.323 505.61 191.349C503.929 192.323 501.858 192.637 499.604 193.378C494.523 186.743 498.661 179.963 498.703 172.512C494.814 177.405 496.597 182.24 495.313 186.458C493.321 192.998 490.322 193.441 485.605 187.497Z" fill="#769F7D"/>
<path d="M37.3697 247.483C62.5449 248.556 77.0211 259.138 82.2255 279.462C85.0971 290.676 79.8928 297.685 68.1162 298.465C42.448 300.164 22.0792 283.442 17.2592 257.027C16.3179 251.868 17.885 248.947 22.8727 248.299C27.2968 247.724 31.7957 247.732 37.3697 247.483Z" fill="#769F7D"/>
<path d="M185.306 173.814C177.091 155.64 181.715 139.662 190.087 124.065C192.259 120.018 194.617 117.833 199.734 120.227C218.507 129.009 231.255 158.857 223.873 177.462C220.725 185.395 220.565 185.496 210.178 186.046C193.853 186.912 193.853 186.912 185.306 173.814Z" fill="#769F7D"/>
<path d="M109.234 162.392C130.355 168.74 144.892 180.261 148.32 202.494C149.501 210.15 149.814 219.077 143.528 223.352C136.818 227.915 128.405 229.364 119.509 224.027C102.139 213.605 91.0071 184.769 98.239 165.849C100.329 160.382 103.965 160.734 109.234 162.392Z" fill="#769F7D"/>
<path d="M8.88808 326.689C-5.04974 305.237 -3.67464 302.345 20.7526 299.91C42.5835 297.735 59.0196 306.534 67.072 324.708C71.9512 335.721 67.3615 344.458 55.6587 346.025C36.8813 348.54 20.7226 344.122 8.88808 326.689Z" fill="#769F7D"/>
<path d="M703.917 314.646C689.502 341.189 674.671 349.991 652.853 345.602C641.242 343.266 636.879 333.752 642.327 322.65C652.416 302.093 680.772 292.605 701.815 302.559C707.72 305.352 706.352 309.351 703.917 314.646Z" fill="#769F7D"/>
<path d="M601.423 468.265C574.218 472.854 549.17 452.577 548.013 426.282C547.604 416.978 556.847 410.024 566.719 412.208C592.211 417.849 604.945 437.794 601.423 468.265Z" fill="#769F7D"/>
<path d="M156.842 436.046C150.258 458.835 133.235 466.155 113.393 469.687C108.755 470.512 105.876 469.218 104.387 464.305C96.5946 438.598 122.994 408.644 149.527 413.286C152.101 417.584 146.619 419.346 146.552 422.989C150.441 423.5 151.473 417.625 155.76 418.908C159.356 423.951 157.763 429.58 156.842 436.046Z" fill="#769F7D"/>
<path d="M570.502 223.957C565.524 224.493 562.661 223.225 561.209 217.765C554.914 194.087 574.054 166.372 598.929 163.441C602.691 162.998 605.004 163.643 606.747 167.363C617.096 189.448 601.491 222.082 577.748 227.739C574.382 228.541 570.994 229.831 570.502 223.957Z" fill="#769F7D"/>
<path d="M413.504 277.441C403.222 275.187 395.398 262.68 396.036 249.679C396.847 233.166 408.348 217.532 424.924 210.411C443.474 229.105 443.767 260.47 425.344 275.096C422.209 277.586 419.093 282.287 413.504 277.441Z" fill="#769F7D"/>
<path d="M290.32 213.57C310.64 230.564 315.995 249.573 306.342 268.468C299.588 281.686 289.339 283.178 279.379 272.392C265.577 257.445 265.607 227.799 279.072 212.96C283.115 208.504 286.127 210.664 290.32 213.57Z" fill="#769F7D"/>
<path d="M137.678 112.219C162.086 116.924 178.368 142.528 171.365 163.501C165.882 179.92 152.649 183.098 139.518 171.148C124.987 157.924 124.018 136.072 137.678 112.219Z" fill="#769F7D"/>
<path d="M333.543 157.589C337.114 145.119 342.143 134.741 351.642 127.249C370.263 138.977 378.535 165.872 369.038 183.661C366.119 189.128 363.543 195.35 355.964 196.243C345.98 197.42 341.176 191.022 337.021 183.498C332.697 175.668 332.462 167.226 333.543 157.589Z" fill="#769F7D"/>
<path d="M585.032 326.107C595.805 324.718 605.186 326.607 614.477 329.085C621.791 331.035 624.328 334.265 619.595 341.44C608.249 358.642 588.836 367.866 570.965 363.732C554.731 359.976 551.404 349.719 562.461 338.018C568.338 331.798 575.659 328.245 585.032 326.107Z" fill="#769F7D"/>
<path d="M543.08 128.074C550.283 121.163 556.737 110.841 566.193 113.715C574.69 116.297 574.628 127.96 576.309 136.305C579.407 151.682 571.804 168.764 559.115 175.911C552.408 179.689 547.549 180.135 547.966 169.452C544.078 178.824 540.504 176.463 537.278 170.377C529.366 155.452 533.081 141.787 543.08 128.074Z" fill="#769F7D"/>
<path d="M152 349.668C146.054 362.786 131.319 367.809 115.115 362.813C101.655 358.662 90.1692 347.624 85 333.871C107.735 316.764 140.738 324.21 152 349.668Z" fill="#769F7D"/>
<path d="M468.861 319.447C476.579 302.391 490.933 297.492 507.116 295.744C512.285 295.186 517.05 295.7 517.837 302.559C519.884 320.405 502.309 341.622 484.611 343.513C469.711 345.104 461.217 334.542 468.861 319.447Z" fill="#769F7D"/>
<path d="M239.746 326.937C241.253 338.898 236.024 343.809 224.936 343.668C204.683 343.41 186.706 322.547 189.239 302.384C189.814 297.804 191.981 296.067 196.441 295.712C216.207 294.138 233.941 306.518 239.746 326.937Z" fill="#769F7D"/>
<path d="M464 417.423C467.238 406.431 475.414 405.646 484.942 407.681C500.262 410.954 514.351 427.679 514.986 442.507C515.277 449.285 511.003 449.862 505.379 449.878C483.823 449.943 468.294 438.119 464 417.423Z" fill="#769F7D"/>
<path d="M202.826 448.84C196.434 449.17 193.004 447.315 193 441.803C192.985 421.731 215.95 400.016 235.316 408.801C237.407 412.006 233.092 413.389 232.945 416.069C236.089 417.611 238.7 412.63 241.934 415.382C242.988 434.488 231.485 444.575 202.826 448.84Z" fill="#769F7D"/>
<path d="M658.569 381.32C647.166 389.542 635.768 393.198 622.377 389.031C615.161 386.786 611.5 382.356 610.18 375.425C608.945 368.933 614.328 366.453 618.148 363.54C630.832 353.865 653.383 354.483 664.787 365.179C673.245 373.112 662.809 376.091 658.569 381.32Z" fill="#769F7D"/>
<path d="M609.813 282.544C605.119 298.107 596.653 308.808 580.438 311.926C573.877 313.188 567.762 313.211 562.927 307.524C558.302 302.084 559.996 296.614 562.302 291.057C568.642 275.783 590.134 265.283 605.83 269.439C613.899 271.575 610.217 277.017 609.813 282.544Z" fill="#769F7D"/>
<path d="M133.583 312.611C109.367 307.792 97.9252 294.734 97 272.043C116.607 264.976 136.852 273.224 144.539 291.41C149.572 303.316 147.342 308.062 133.583 312.611Z" fill="#769F7D"/>
<path d="M61.2447 389.328C51.3524 383.897 40.1545 380.14 40.0002 368.181C39.9329 362.975 62.1969 356.414 72.3435 357.917C82.9657 359.491 91.6718 363.979 97 373.976C89.0873 376.209 96.3997 387.079 86.3044 389.173C78.0444 390.887 70.2819 391.602 61.2447 389.328Z" fill="#769F7D"/>
<path d="M51.6958 433.487C56.7907 425.782 62.4915 419.951 70.9238 417.498C76.2793 415.94 82.8774 414.136 86.5988 418.798C91.1778 424.535 95.1869 430.801 88.3062 439.07C79.3541 449.828 67.838 453.028 54.8624 453.855C48.9168 454.234 45.8094 451.145 47.424 445.153C48.4206 441.455 49.9712 437.896 51.6958 433.487Z" fill="#769F7D"/>
<path d="M654.973 435.704C661.076 453.496 658.722 456.105 640.763 452.471C629.492 450.19 620.432 444.703 615.674 434.382C614.121 431.013 610.765 427.261 615.236 422.812C619.484 418.584 623.006 414.629 630.082 416.141C641.56 418.592 649.747 424.66 654.973 435.704Z" fill="#769F7D"/>
<path d="M524.49 69.4545C532.08 66.5432 539.914 59.563 545.839 65.3535C552.166 71.5364 547.549 80.862 544.472 88.2572C540.278 98.3338 532.635 104.957 520.86 105.203C515.933 105.305 511.319 102.669 510.474 97.9465C508.329 85.9598 513.54 76.7071 524.49 69.4545Z" fill="#769F7D"/>
<path d="M196 94.7098C192.06 106.273 184.323 107.028 174.986 102.971C163.58 98.0138 154.889 80.2495 157.451 68.5752C158.889 62.0224 163.434 62.6636 167.909 63.9739C183.417 68.5146 194.531 77.0702 196 94.7098Z" fill="#769F7D"/>
<path d="M531.672 203.386C533.465 219.277 527.795 231.988 517.424 236.894C507.814 241.44 500.126 235.74 501.08 224.775C502.548 207.905 517.904 196.622 531.672 203.386Z" fill="#769F7D"/>
<path d="M203.248 219.751C205.019 227.903 203.936 235.1 197.022 237.754C190.318 240.327 184.576 235.488 180.172 230.208C172.811 221.381 170.611 204.912 175.955 200.493C180.937 196.373 195.485 204.395 201.185 214.473C201.953 215.83 202.404 217.382 203.248 219.751Z" fill="#769F7D"/>
<path d="M266.924 14.5334C270.959 10.9116 274.032 9.15759 277.728 13.9201C285.583 24.04 284.555 42.7839 275.348 51.2757C268.618 57.4833 261.108 56.0879 257.92 47.5326C253.242 34.9743 257.444 24.3935 266.924 14.5334Z" fill="#769F7D"/>
<path d="M449 38.0329C448.006 46.3402 447.775 55.2835 438.148 55.105C429.382 54.9424 425.663 46.9879 423.743 39.2515C420.971 28.0822 426.417 11.5582 432.491 11.036C438.64 10.5072 447.581 24.5515 449 38.0329Z" fill="#769F7D"/>
<path d="M69 155.357C69.1584 149.878 69.8886 145.595 73.2266 142.278C84.961 144.751 91.9377 153.066 91.9993 164.497C92.0243 169.128 91.4291 173.593 86.665 175.613C81.2536 177.908 77.5696 174.393 74.4212 170.714C70.9578 166.666 69.3856 161.69 69 155.357Z" fill="#769F7D"/>
<path d="M627.487 143.28C638.8 145.179 636.965 153.372 636.781 160.234C636.58 167.777 632.337 174.161 625.026 175.971C616.681 178.036 614.096 171.153 614.003 164.798C613.869 155.672 618.447 148.49 627.487 143.28Z" fill="#769F7D"/>
<path d="M237.568 125.012C254.287 135.454 267.087 147.488 280.503 158.529C294.744 170.25 307.955 183.123 320.257 196.96C332.249 210.448 341.879 225.699 353.153 242.685C368.741 218.399 383.718 196.018 403.569 177.665C423.386 159.344 444.262 142.377 467.248 125.582C468.317 133.272 463.486 135.789 460.409 138.938C438.607 161.246 417.443 184.088 399.19 209.531C376.154 241.643 364.059 277.008 366.627 317.022C367.838 335.896 368.47 354.808 369.499 376.533C374.684 367.289 378.577 360.052 382.74 352.977C395.557 331.196 411.273 311.788 430.591 295.558C450.318 278.983 458.768 256.599 462.894 232.217C465.245 218.317 457.225 207.98 448.518 198.284C445.404 194.817 440.076 193.2 438.952 186.228C449.655 187.975 456.059 196.468 465.49 200.364C471.083 186.333 465.733 172.05 468.349 158.141C476.236 170.896 477.294 185.394 478.831 199.587C480.48 214.814 478.391 230.01 475.834 245.011C472.391 265.211 474.161 266.649 493.933 260.218C509.613 255.117 524.915 250.169 534.922 235.308C540.942 226.366 542.885 215.796 548.688 203.376C552.707 220.758 546.289 233.149 541.08 247.259C560.797 247.469 579.503 241.234 598.526 245.27C596.968 251.349 592.162 249.989 588.484 250.703C544.113 259.324 500.84 271.122 463.483 298.198C430.663 321.987 409.428 354.594 393.492 395.002C399.806 391.71 403.597 389.837 407.292 387.79C426.114 377.364 446.292 370.72 467.413 367.604C505.855 361.93 527.155 338.453 536.701 302.05C537.725 298.146 538.915 294.286 540.136 290.028C544.594 299.739 543.397 311.856 538.01 328.637C533.954 341.269 524.945 351.194 518.756 365.72C553.977 372.758 586.115 384.844 614.323 406.004C581.128 397.055 549.319 382.724 511.861 383.585C520.325 395.684 532.609 402.29 536.17 415.087C533.516 416.724 532.137 415.799 531.013 414.638C497.223 379.741 456.073 387.697 421.851 411.169C386.879 435.154 376.992 467.195 381.855 496.925C383.691 508.143 387.628 519.032 393.108 529.035H312.951C317.883 519.619 321.627 508.956 324.068 496.925C330.92 463.155 316.965 437.192 291.979 416.739C265.316 394.913 235.651 383.653 200.952 396.651C189.708 400.864 181.648 409.602 170.395 418.463C173.7 401.859 187.656 396.639 195.393 383.749C157.478 381.809 125.018 396.024 91.5068 406.428C119.837 384.762 152.609 373.37 189.317 365.008C172.662 341.891 161.644 318.998 162.115 291.939C167.799 291.971 167.21 295.938 168.055 298.854C179.175 337.238 201.187 363.061 243.126 368.158C267.278 371.094 289.275 381.484 313.233 395.346C295.867 350.201 271.927 314.282 232.704 290.204C194.388 266.683 151.213 257.73 107.843 247.81C115.902 242.463 125.011 244.525 133.591 244.755C142.837 245.003 152.01 247.879 162.661 245.745C159.371 232.752 154.091 220.488 157.708 206.692C164.135 222.891 169.446 239.64 185.741 248.887C200.773 257.417 217.841 259.961 235.508 268.796C226.62 229.729 223.928 193.632 239.091 158.147V202.561C248.802 198.516 254.512 189.146 265.374 187.855C265.26 193.968 260.724 196.041 257.898 198.977C244.4 212.998 240.257 228.634 246.983 247.573C253.981 267.274 263.225 284.482 279.61 298.605C304.225 319.822 322.491 346.608 337.657 379.27C337.657 343.126 340.16 310.126 336.956 277.699C333.725 244.999 315.416 217.621 294.422 192.916C278.487 174.165 261.595 156.242 245.206 137.88C242.567 134.923 238.579 132.907 237.568 125.012Z" fill="#2A4A6B"/>
<path d="M367.53 450.226C373.309 446.179 379.62 447.475 385.596 449.901C386.78 450.382 387.542 452.67 387.901 454.261C388.536 457.075 388.712 459.993 389.08 462.867C391.058 476.198 391.926 489.812 395.222 502.807C405.037 541.509 431.906 561.786 469.808 569.092C481.483 571.342 493.327 572.737 504.964 575.151C518.319 577.921 530.373 583.926 541.723 591.473C543.574 592.704 546.317 593.338 548.544 593.13C560.725 591.99 572.512 592.874 583.559 598.672C585.098 599.48 586.552 600.454 587.678 602.058C581.836 600.519 576.071 598.378 570.13 597.61C564.182 596.84 558.058 597.441 551.795 598.156C576.827 624.035 590.109 651.426 568.125 685.339C568.868 683.378 569.559 681.395 570.363 679.459C579.638 657.146 575.291 637.359 559.162 619.9C555.783 616.242 551.814 613.131 547.575 609.429C546.778 609.157 546.521 609.223 546.265 609.289C546.421 609.678 546.578 610.067 546.734 610.455C550.223 619.367 552.793 628.378 551.672 638.197C551.482 639.862 553.605 642.172 555.186 643.599C564.589 652.089 568.991 665.096 566.013 677.473C564.911 664.353 561.204 652.606 549.209 645.393C542.738 641.501 535.665 640.467 528.944 641.149C533.856 651.635 539.45 661.817 543.49 672.584C551.221 693.189 553.892 714.317 545.874 735.611C542.707 744.021 538.78 752.076 531.108 757.972C530.884 758.182 530.828 758.223 530.821 758.228C537.205 749.038 541.427 738.958 543.572 727.953C545.963 715.686 543.795 696.967 538.712 686.866C533.926 692.764 529.063 698.754 523.794 704.8C523.204 701.992 523.362 699.043 522.68 696.306C522.384 695.121 520.44 693.84 519.081 693.619C518.266 693.487 516.622 695.146 516.235 696.298C514.944 700.143 514.094 704.135 512.956 708.036C512.795 708.588 511.974 708.948 511.411 708.986C511.363 701.461 511.364 694.346 511.527 687.076C511.537 686.419 511.383 685.916 511.13 684.997C510.618 681.606 510.204 678.63 509.743 675.31C505.724 678.488 502.597 681.62 498.887 683.717C494.829 686.01 493.34 688.858 492.848 693.489C491.861 702.763 489.047 711.456 480.011 716.454C479.554 716.096 479.359 715.967 479.315 715.523C491.645 699.029 491.044 678.884 478.002 665.927C478.111 663.346 478.226 661.221 478.613 659.265C486.827 665.367 491.398 673.404 493.192 683.713C497.839 679.613 502.188 676.219 505.924 672.247C507.327 670.755 508.376 667.55 507.761 665.755C504.105 655.097 500.463 644.367 495.733 634.165C491.636 625.327 484.775 618.446 475.676 613.099C476.152 616.466 476.948 619.246 476.85 621.993C476.646 627.676 478.538 631.516 483.361 635.113C490.812 640.667 494.146 648.787 493.432 655.67C490.717 647.528 486.452 641.125 478.342 637.058C478.342 644.805 478.342 651.946 477.956 659.1C477.154 658.872 476.379 658.639 476.373 658.389C476.233 651.808 475.583 645.164 476.245 638.656C477.099 630.266 472.045 624.356 469.41 617.3C466.781 621.034 464.694 624.581 463.045 628.322C461.365 632.131 461.16 637.208 458.467 639.83C452.32 645.815 444.674 649.878 436.121 650.934C442.308 647.468 448.41 644.469 454.214 640.974C455.684 640.088 457.167 637.528 457.009 635.897C455.896 624.458 451.212 614.223 445.802 603.841C443.16 609.626 441.095 615.059 438.284 620.072C434.928 626.059 429.125 629.821 424.343 629.756C425.781 628.474 427.331 627.598 428.148 626.27C430.63 622.239 433.138 618.168 435.031 613.848C436.385 610.759 434.68 608.221 431.495 607.287C427.588 606.142 423.574 605.361 419.701 604.446C424.813 600.586 430.516 602.305 436.315 604.418C437.66 600.165 440.243 595.937 436.649 592.424C430.346 586.264 422.75 582.188 413.795 581.128C408.963 580.556 405.572 582.546 404.154 587.133C402.587 592.206 401.186 597.366 400.235 602.584C399.342 607.488 401.378 611.357 405.807 613.888C407.388 614.791 408.828 615.944 410.925 617.392C403.909 619.002 398.193 617.084 396.423 611.551C394.761 606.355 394.924 600.551 394.477 594.999C394.315 592.99 394.712 590.935 394.899 588.241C381.723 590.886 374.663 599.115 371.251 610.354C368.913 618.055 368.254 626.267 366.585 634.005C366.212 630.399 366.483 626.961 365.839 623.705C365.456 621.768 363.633 620.116 362.458 618.336C361.31 620.145 359.274 621.906 359.17 623.773C358.759 631.2 358.226 638.724 362.515 645.551C363.765 647.54 364.099 650.108 364.853 652.41C359.445 646.918 357.424 639.903 357.038 632.596C355.948 611.931 361.219 593.657 378.105 580.138C379.768 578.807 381.217 577.21 383.434 575.101C373.674 563.708 364.076 552.505 354.045 540.795C344.174 552.677 332.125 562.121 324.746 575.881C348.358 595.701 356.302 619.729 344.423 649.088C344.093 647.818 344.446 646.475 344.491 645.121C344.587 642.293 344.52 639.458 344.52 636.626C343.87 636.54 343.221 636.453 342.571 636.366C341.738 638.069 341.147 639.962 340.006 641.423C338.716 643.074 336.93 644.337 335.5 645.429C346.276 622.154 332.692 589.813 312.115 589.036C312.115 594.147 312.347 599.271 312.049 604.364C311.758 609.335 310.275 614.208 305.539 616.585C303.166 617.776 299.422 618.391 297.287 617.309C294.981 616.139 293.828 612.684 292.286 610.395C295.592 611.595 298.347 613.609 300.739 613.242C304.984 612.593 306.506 608.624 305.861 604.757C304.803 598.408 303.174 592.138 301.495 585.914C300.544 582.39 297.762 581.158 294.183 581.192C286.317 581.266 279.658 584.367 273.668 589.157C267.232 594.305 266.92 596.188 270.935 604.027C275.38 603.629 279.865 600.38 284.814 603.818C282.672 604.353 280.879 604.688 279.16 605.25C270.547 608.066 268.908 611.713 273.567 619.462C275.939 623.406 279.463 626.654 282.679 630.469C269.363 626.35 265.493 614.914 260.778 603.581C257.366 610.888 253.732 618.067 251.879 625.68C248.508 639.531 245.417 637.941 259.739 645.579C260.568 646.021 261.3 646.646 261.667 647.212C248.251 645.71 244.055 637.248 248.354 625.601C245.907 623.343 243.777 621.067 241.309 619.252C240.321 618.526 237.918 618.154 237.319 618.764C235.272 620.851 233.647 623.387 232.047 625.871C231.191 627.2 230.713 628.775 230.026 629.79C230.437 624.03 230.886 618.719 231.392 612.732C230.081 613.602 229.406 614.019 228.764 614.481C213.68 625.324 205.817 640.825 201.022 658.183C199.992 661.914 199.982 665.928 199.11 669.823C198.212 667.597 196.846 665.145 197.339 663.156C200.889 648.848 205.556 634.796 215.561 623.659C221.079 617.516 226.089 610.062 235.691 608.719C237.089 608.523 238.298 603.944 238.726 601.254C238.905 600.12 236.338 597.318 235.856 597.499C230.49 599.524 225.069 598.486 219.658 598.363C218.388 598.335 217.107 598.757 215.979 598.668C220.211 594.946 224.296 591.527 228.861 587.706C211.129 589.601 193.856 590.96 178.066 598.98C165.771 605.225 156.79 623.873 159.002 636.721C168.567 634.823 178.135 632.924 187.726 631.428C182.624 632.971 177.478 634.024 172.387 635.298C170.55 635.758 168.846 636.746 167.081 637.493C167.263 638.045 167.447 638.596 167.629 639.148C168.951 638.942 170.305 638.45 171.589 638.591C174.424 638.903 177.223 639.536 180.037 640.037C159.74 639.638 145.155 650.756 142.136 669.644C142.043 670.222 141.68 670.757 140.26 671.314C140.169 669.696 139.708 667.995 140.047 666.474C142.079 657.348 145.722 649.152 153.299 643.063C154.746 641.9 156.085 639.181 155.778 637.488C154.223 628.926 155.465 620.905 159.095 613.127C159.435 612.399 159.653 611.61 159.891 610.838C159.924 610.728 159.744 610.55 159.458 610.035C148.755 619.732 138.029 629.16 134.035 643.852C130.081 658.396 131.992 672.217 139.005 685.501C129.41 676.968 124.818 655.824 129.103 639.77C133.403 623.655 142.998 610.814 155.828 599.265C142.057 595.662 129.793 598.097 117.304 603.197C122.226 598.086 133.483 593.907 143.498 593.194C143.83 593.17 144.173 593.099 144.495 593.149C157.266 595.141 168.069 590.816 178.914 584.213C193.537 575.31 210.432 572.901 227.176 570.931C259.3 567.151 285.697 553.08 305.382 527.212C316.914 512.058 321.805 494.342 323.971 475.079C324.297 473.351 324.164 472.153 324.029 470.955C323.98 470.491 323.93 470.026 324.139 469.143C324.458 468.622 324.594 468.463 324.567 468.426C324.433 468.244 324.255 468.094 324.093 467.933C324.034 465.553 323.975 463.173 324.371 460.313C326.858 459.241 329.005 457.891 330.903 458.18C344.177 460.202 356.373 458.039 367.53 450.226ZM521.395 655.231C522.269 662.156 523.143 669.083 524.061 676.952V697.136C524.662 697.248 525.263 697.359 525.864 697.471C528.595 692.413 531.409 687.398 533.997 682.268C534.618 681.036 535.134 679.096 534.6 678.039C530.626 670.176 526.375 662.453 522.211 654.687C521.939 654.868 521.667 655.049 521.395 655.231ZM478.383 587.835C493.786 598.77 506.067 612.067 516.117 627.331C519.374 632.277 523.18 633.11 528.331 633.323C533.044 633.519 537.749 634.641 542.385 635.677C544.51 636.152 546.465 637.399 549.119 638.572C548.453 628.591 546.235 619.989 541.435 611.343C538.301 604.197 532.936 599.138 525.596 597.102C514.427 594.004 503.059 591.589 491.708 589.206C487.362 588.294 482.83 588.266 478.383 587.835Z" fill="#2A4A6B"/>
</svg>
